<svg id="Capa_1" data-name="Capa 1" xmlns="http://www.w3.org/2000/svg" xmlns:xlink="http://www.w3.org/1999/xlink" viewBox="0 0 250.75 59.71"><defs><style>.cls-1{fill:#32312f;}.cls-2{fill:url(#Degradado_sin_nombre_183);}.cls-3{fill:url(#Degradado_sin_nombre_183-2);}.cls-4{fill:url(#Degradado_sin_nombre_183-3);}.cls-5{fill:url(#Degradado_sin_nombre_183-4);}.cls-6{fill:url(#Degradado_sin_nombre_183-5);}.cls-7{fill:url(#Degradado_sin_nombre_183-6);}.cls-8{opacity:0.8;}.cls-9{fill:url(#Degradado_sin_nombre_111);}.cls-10{fill:url(#Degradado_sin_nombre_111-2);}.cls-11{fill:url(#Degradado_sin_nombre_111-3);}</style><linearGradient id="Degradado_sin_nombre_183" x1="207.05" y1="-6.77" x2="208.8" y2="42.52" gradientUnits="userSpaceOnUse"><stop offset="0" stop-color="#00f7ff"/><stop offset="0.21" stop-color="#00bfed"/><stop offset="0.49" stop-color="#007ed8"/><stop offset="0.72" stop-color="#004ec8"/><stop offset="0.9" stop-color="#0031bf"/><stop offset="1" stop-color="#0026bb"/></linearGradient><linearGradient id="Degradado_sin_nombre_183-2" x1="225.42" y1="-7.42" x2="227.16" y2="41.86" xlink:href="#Degradado_sin_nombre_183"/><linearGradient id="Degradado_sin_nombre_183-3" x1="243.56" y1="-8.06" x2="245.31" y2="41.22" xlink:href="#Degradado_sin_nombre_183"/><linearGradient id="Degradado_sin_nombre_183-4" x1="-14.16" y1="-35.07" x2="57.61" y2="60.93" xlink:href="#Degradado_sin_nombre_183"/><linearGradient id="Degradado_sin_nombre_183-5" x1="-25.92" y1="-26.28" x2="45.85" y2="69.72" xlink:href="#Degradado_sin_nombre_183"/><linearGradient id="Degradado_sin_nombre_183-6" x1="-11.33" y1="-37.19" x2="60.44" y2="58.81" xlink:href="#Degradado_sin_nombre_183"/><linearGradient id="Degradado_sin_nombre_111" x1="-2.37" y1="2.65" x2="25.55" y2="44.46" gradientUnits="userSpaceOnUse"><stop offset="0" stop-color="#f4f4f4"/><stop offset="1" stop-color="#f4f4f4" stop-opacity="0"/></linearGradient><linearGradient id="Degradado_sin_nombre_111-2" x1="24.27" y1="-15.14" x2="52.19" y2="26.67" xlink:href="#Degradado_sin_nombre_111"/><linearGradient id="Degradado_sin_nombre_111-3" x1="10.48" y1="-5.93" x2="38.41" y2="35.88" xlink:href="#Degradado_sin_nombre_111"/></defs><title>ICN-001</title><path class="cls-1" d="M89.87,23.07a9.87,9.87,0,0,1-3.45,7.67Q83.48,33.38,78,33.38H71.22V46.1a1,1,0,0,1-1,1h0a1,1,0,0,1-1-1V16.85a3.64,3.64,0,0,1,1.53-3.18,4.58,4.58,0,0,1,2.69-.82l6.31,0a10,10,0,0,1,7.4,2.79A10,10,0,0,1,89.87,23.07Zm-2.22,0a8.52,8.52,0,0,0-2.1-6,7.73,7.73,0,0,0-5.91-2.3H73.13a1.93,1.93,0,0,0-1.91,2V31.45h7.54a9.17,9.17,0,0,0,6.39-2.15A7.86,7.86,0,0,0,87.65,23.11Z" transform="translate(-4.62 -0.14)"/><path class="cls-1" d="M114.35,34.68a13.47,13.47,0,0,1-2.77,8.83,10.18,10.18,0,0,1-8.34,3.64q-5.46,0-8.41-3.59-2.74-3.31-2.75-8.88V14a1,1,0,0,1,1-1.05h0a1,1,0,0,1,1,1.05V33.86q0,11.27,9.07,11.27t9-11.27V14a1,1,0,0,1,1-1.05h0a1,1,0,0,1,1,1.05Z" transform="translate(-4.62 -0.14)"/><path class="cls-1" d="M140,44.08c0,2.05-.91,3.07-2.74,3.07-1.24,0-2.24-.78-3-2.35l-14-29.5a.74.74,0,0,0-.65-.5c-.44,0-.66.29-.66.88V46.09a1.05,1.05,0,0,1-1.06,1.06h0a1.06,1.06,0,0,1-1.06-1.06V15.92c0-2.05.91-3.07,2.74-3.07,1.25,0,2.25.78,3,2.33l14,29.47c.16.34.37.5.63.5.44,0,.65-.28.65-.83V13.91A1.06,1.06,0,0,1,139,12.85h0A1.05,1.05,0,0,1,140,13.91Z" transform="translate(-4.62 -0.14)"/><path class="cls-1" d="M162.67,14.88H154V46.09a1.06,1.06,0,0,1-1.06,1.06h0a1.05,1.05,0,0,1-1.06-1.06V14.88h-8.63a1,1,0,0,1-1-1h0a1,1,0,0,1,1-1h19.44a1,1,0,0,1,1,1h0A1,1,0,0,1,162.67,14.88Z" transform="translate(-4.62 -0.14)"/><path class="cls-1" d="M195.07,30q0,8.34-4.4,12.58a16.53,16.53,0,0,1-23.3-.39q-3.78-4-3.78-12.19t3.82-12.18a16.84,16.84,0,0,1,23.88.07Q195.07,21.81,195.07,30Zm-2.18,0q0-7.4-3.08-10.73a14.59,14.59,0,0,0-20.94,0q-3.1,3.33-3.1,10.75t3.1,10.77a14.47,14.47,0,0,0,20.94,0Q192.89,37.31,192.89,29.92Z" transform="translate(-4.62 -0.14)"/><path class="cls-2" d="M198.39,13.9a1,1,0,0,1,1-1h7.91a23.75,23.75,0,0,1,6.37.65,6.33,6.33,0,0,1,3.5,2.66c.88,1.33,1.33,3.47,1.33,6.43a7,7,0,0,1-.94,4.18,5.82,5.82,0,0,1-3.09,1.66.16.16,0,0,0,0,.31A6.09,6.09,0,0,1,218,31a8.89,8.89,0,0,1,1.1,5v3.18a12.53,12.53,0,0,1-.79,5.13,4.27,4.27,0,0,1-2.53,2.29q-1.72.62-7.1.61h-9.32a1,1,0,0,1-1-1Zm8.9,4.88v7.61l.88,0c.88,0,1.43-.21,1.67-.64A10.54,10.54,0,0,0,210.2,22a6.14,6.14,0,0,0-.29-2.25,1.43,1.43,0,0,0-.77-.81A6.74,6.74,0,0,0,207.29,18.78Zm0,12.94V41.3a3.82,3.82,0,0,0,2.4-.59,4.22,4.22,0,0,0,.51-2.6v-3.2c0-1.46-.15-2.35-.46-2.66A4.15,4.15,0,0,0,207.29,31.72Z" transform="translate(-4.62 -0.14)"/><path class="cls-3" d="M231.19,13.9V46.18a1,1,0,0,1-1,1h-6.95a1,1,0,0,1-1-1V13.9a1,1,0,0,1,1-1h6.95A1,1,0,0,1,231.19,13.9Z" transform="translate(-4.62 -0.14)"/><path class="cls-4" d="M234.77,13.9a1,1,0,0,1,1-1h5.68a41.75,41.75,0,0,1,8.72.59,6.67,6.67,0,0,1,3.46,2,6.14,6.14,0,0,1,1.48,3,44.94,44.94,0,0,1,.3,6.52V37a27.66,27.66,0,0,1-.44,6.16,4.67,4.67,0,0,1-1.51,2.43,6.34,6.34,0,0,1-2.66,1.22,23.53,23.53,0,0,1-4.78.35H235.74a1,1,0,0,1-1-1Zm8.9,4.88V41.3c1.28,0,2.07-.26,2.36-.77s.45-1.92.45-4.2V23a17.63,17.63,0,0,0-.15-3,1.45,1.45,0,0,0-.68-1A4.41,4.41,0,0,0,243.67,18.78Z" transform="translate(-4.62 -0.14)"/><path class="cls-5" d="M27.62,30a6.86,6.86,0,1,0,6.86-6.86A6.86,6.86,0,0,0,27.62,30Z" transform="translate(-4.62 -0.14)"/><path class="cls-6" d="M4.62,30A29.81,29.81,0,0,0,16.68,54a.41.41,0,0,0,.65-.33V6.37A.41.41,0,0,0,16.68,6,29.81,29.81,0,0,0,4.62,30Z" transform="translate(-4.62 -0.14)"/><path class="cls-7" d="M34.48.14a29.93,29.93,0,0,0-6.54.73.41.41,0,0,0-.32.4v12.4a.41.41,0,0,0,.56.38,17.15,17.15,0,1,1,0,31.9.41.41,0,0,0-.56.38v12.4a.41.41,0,0,0,.32.4,29.86,29.86,0,1,0,6.54-59Z" transform="translate(-4.62 -0.14)"/><g class="cls-8"><path class="cls-9" d="M17.33,29.36v-23A.41.41,0,0,0,16.68,6,29.8,29.8,0,0,0,11,48.41,34,34,0,0,1,17.33,29.36Z" transform="translate(-4.62 -0.14)"/><path class="cls-10" d="M28.18,14.05a17,17,0,0,1,16.2,2,31.1,31.1,0,0,1,19.36,8A29.84,29.84,0,0,0,27.94.87a.41.41,0,0,0-.32.4v12.4A.41.41,0,0,0,28.18,14.05Z" transform="translate(-4.62 -0.14)"/><path class="cls-11" d="M40.48,27.18h.26a6.86,6.86,0,1,0-11.43,7.32A12.37,12.37,0,0,1,40.48,27.18Z" transform="translate(-4.62 -0.14)"/></g></svg>