<svg id="Capa_1" data-name="Capa 1" xmlns="http://www.w3.org/2000/svg" viewBox="0 0 55 55"><defs><style>.cls-1{fill:#003bee;}</style></defs><title>ICN-002</title><path class="cls-1" d="M39.63,57.42c.55-.05,1.11-.11,1.65-.19l.46-.06q.73-.12,1.47-.27l.65-.15,1-.25c.4-.11.8-.23,1.19-.36l.41-.14a27.56,27.56,0,0,0,7.36-3.88l0,0a27.59,27.59,0,0,0,5.83-5.84h0A27.48,27.48,0,1,0,37.5,57.5c.62,0,1.24,0,1.85-.07ZM37.5,13.5a6.88,6.88,0,1,1-6.87,6.88A6.87,6.87,0,0,1,37.5,13.5ZM21,44.52V41a8.27,8.27,0,0,1,8.25-8.25h16.5A8.27,8.27,0,0,1,54,41v3.52a21.94,21.94,0,0,1-33,0Z" transform="translate(-10 -2.5)"/></svg>