<svg id="Capa_1" data-name="Capa 1" xmlns="http://www.w3.org/2000/svg" viewBox="0 0 140 140"><defs><style>.cls-1{fill:#ecf0f8;}.cls-2{fill:#b8b8b8;}.cls-3{fill:gray;}.cls-4{fill:#e9e9e9;}.cls-5{fill:#fd8201;}.cls-6{fill:#ffdb03;}.cls-7{fill:#29313d;}.cls-8{fill:#1d232b;}.cls-9{fill:#313b4a;}.cls-10{fill:#435266;}.cls-11{fill:#5b6e88;}.cls-12{fill:#252d38;}.cls-13{fill:#fdbd00;}.cls-14{fill:#72b62e;}.cls-15{fill:#659f29;}.cls-16{fill:#598a23;}.cls-17{fill:#fde75a;}.cls-18{fill:#fcca03;}.cls-19{fill:#f9f9f9;}.cls-20{fill:#222933;}</style></defs><title>MQ-005</title><circle class="cls-1" cx="70" cy="70" r="70"/><polygon class="cls-2" points="13.82 97.26 13.82 93.69 57.84 119.09 57.84 122.67 13.82 97.26"/><polygon class="cls-3" points="109.66 92.75 109.66 89.17 57.84 119.09 57.84 122.67 109.66 92.75"/><polygon class="cls-4" points="65.65 63.77 13.82 93.69 57.84 119.09 109.66 89.17 65.65 63.77"/><polygon class="cls-5" points="70.03 30.48 70.03 70.66 58.41 77.37 53.44 80.23 25.77 96.2 25.76 96.21 25.76 56.04 70.03 30.48"/><polygon class="cls-6" points="58.41 74.9 58.41 77.37 53.44 80.23 53.44 77.76 25.77 61.78 25.77 96.22 25.76 96.21 20.81 93.36 20.81 53.19 25.76 56.05 58.41 74.9"/><polygon class="cls-7" points="14.78 104.08 28.61 112.06 73.7 86.03 73.41 78.96 59.87 78.04 14.78 104.08"/><polygon class="cls-8" points="59.63 78.89 62.74 80.69 61.22 81.56 67.6 85.25 69.12 84.37 72.22 86.16 68.13 88.53 65.02 86.74 63.51 87.61 57.13 83.93 58.64 83.05 55.54 81.26 59.63 78.89"/><polygon class="cls-8" points="54.2 82.03 57.31 83.82 55.79 84.7 62.17 88.38 63.69 87.51 66.79 89.3 62.7 91.66 59.59 89.87 58.08 90.75 51.7 87.06 53.21 86.19 50.11 84.39 54.2 82.03"/><polygon class="cls-8" points="48.77 85.17 51.88 86.96 50.36 87.83 56.74 91.52 58.26 90.64 61.36 92.43 57.27 94.8 54.16 93.01 52.65 93.88 46.27 90.2 47.78 89.32 44.68 87.53 48.77 85.17"/><polygon class="cls-8" points="43.34 88.3 46.45 90.09 44.93 90.97 51.31 94.65 52.83 93.78 55.93 95.57 51.84 97.93 48.73 96.14 47.22 97.02 40.84 93.33 42.35 92.46 39.25 90.67 43.34 88.3"/><polygon class="cls-8" points="37.91 91.44 41.02 93.23 39.5 94.1 45.88 97.79 47.4 96.91 50.5 98.7 46.41 101.07 43.3 99.28 41.79 100.15 35.41 96.47 36.92 95.59 33.82 93.8 37.91 91.44"/><polygon class="cls-8" points="32.48 94.57 35.59 96.36 34.07 97.24 40.45 100.92 41.97 100.05 45.07 101.84 40.98 104.2 37.87 102.41 36.36 103.29 29.97 99.6 31.49 98.73 28.39 96.94 32.48 94.57"/><polygon class="cls-8" points="27.05 97.71 30.16 99.5 28.64 100.37 35.02 104.06 36.54 103.18 39.64 104.98 35.55 107.34 32.44 105.55 30.93 106.42 24.54 102.74 26.06 101.86 22.96 100.07 27.05 97.71"/><polygon class="cls-8" points="21.62 100.84 24.73 102.63 23.21 103.51 29.59 107.19 31.11 106.32 34.21 108.11 30.11 110.48 27.01 108.68 25.5 109.56 19.11 105.87 20.63 105 17.53 103.21 21.62 100.84"/><polygon class="cls-9" points="14.78 96.6 28.61 104.59 73.7 78.56 59.87 70.57 14.78 96.6"/><polygon class="cls-10" points="59.63 71.42 62.74 73.22 61.22 74.09 67.6 77.78 69.12 76.9 72.22 78.69 68.13 81.06 65.02 79.27 63.51 80.14 57.13 76.45 58.64 75.58 55.54 73.79 59.63 71.42"/><polygon class="cls-10" points="54.2 74.56 57.31 76.35 55.79 77.22 62.17 80.91 63.69 80.03 66.79 81.83 62.7 84.19 59.59 82.4 58.08 83.28 51.7 79.59 53.21 78.72 50.11 76.92 54.2 74.56"/><polygon class="cls-10" points="48.77 77.69 51.88 79.48 50.36 80.36 56.74 84.05 58.26 83.17 61.36 84.96 57.27 87.33 54.16 85.53 52.65 86.41 46.27 82.72 47.78 81.85 44.68 80.06 48.77 77.69"/><polygon class="cls-10" points="43.34 80.83 46.45 82.62 44.93 83.5 51.31 87.18 52.83 86.31 55.93 88.1 51.84 90.46 48.73 88.67 47.22 89.55 40.84 85.86 42.35 84.98 39.25 83.19 43.34 80.83"/><polygon class="cls-10" points="37.91 83.96 41.02 85.76 39.5 86.63 45.88 90.32 47.4 89.44 50.5 91.23 46.41 93.6 43.3 91.81 41.79 92.68 35.41 89 36.92 88.12 33.82 86.33 37.91 83.96"/><polygon class="cls-10" points="32.48 87.1 35.59 88.89 34.07 89.77 40.45 93.45 41.97 92.58 45.07 94.37 40.98 96.73 37.87 94.94 36.36 95.82 29.97 92.13 31.49 91.26 28.39 89.46 32.48 87.1"/><polygon class="cls-10" points="27.05 90.23 30.16 92.03 28.64 92.9 35.02 96.59 36.54 95.71 39.64 97.5 35.55 99.87 32.44 98.08 30.93 98.95 24.54 95.27 26.06 94.39 22.96 92.6 27.05 90.23"/><polygon class="cls-10" points="21.62 93.37 24.73 95.16 23.21 96.04 29.59 99.72 31.11 98.85 34.21 100.64 30.11 103 27.01 101.21 25.5 102.09 19.11 98.4 20.63 97.53 17.53 95.73 21.62 93.37"/><path class="cls-9" d="M22.71,103.3h0c0-1.87-1.31-2.63-2.93-1.7h0a6.5,6.5,0,0,0-2.94,5.08,2.09,2.09,0,0,0,.78,1.83v0l14,8.21,2-7.16Z" transform="translate(-5 -5)"/><path class="cls-7" d="M16.9,106a4,4,0,0,0-.06.68,2.09,2.09,0,0,0,.78,1.83v0l13.78,8.09-.15-2.38Z" transform="translate(-5 -5)"/><path class="cls-11" d="M30.62,114.77c0,1.9,1.34,2.67,3,1.72a6.6,6.6,0,0,0,3-5.17c0-1.91-1.34-2.68-3-1.73A6.6,6.6,0,0,0,30.62,114.77Z" transform="translate(-5 -5)"/><path class="cls-10" d="M31.7,115.39c0,1.9,1.34,2.68,3,1.72a6.6,6.6,0,0,0,3-5.17c0-1.91-1.34-2.68-3-1.73A6.62,6.62,0,0,0,31.7,115.39Z" transform="translate(-5 -5)"/><path class="cls-12" d="M32.58,114.88c0,1.35.94,1.9,2.11,1.22a4.65,4.65,0,0,0,2.11-3.66c0-1.34-.94-1.89-2.11-1.22A4.68,4.68,0,0,0,32.58,114.88Z" transform="translate(-5 -5)"/><path class="cls-13" d="M33.57,114.31c0,.71.5,1,1.12.64A2.45,2.45,0,0,0,35.81,113c0-.71-.5-1-1.12-.65A2.48,2.48,0,0,0,33.57,114.31Z" transform="translate(-5 -5)"/><path class="cls-11" d="M75.18,88.92c0,1.91,1.34,2.68,3,1.73a6.59,6.59,0,0,0,3-5.18c0-1.9-1.33-2.67-3-1.72A6.6,6.6,0,0,0,75.18,88.92Z" transform="translate(-5 -5)"/><path class="cls-10" d="M76.26,89.55c0,1.9,1.33,2.67,3,1.72a6.6,6.6,0,0,0,3-5.17c0-1.91-1.34-2.68-3-1.73A6.59,6.59,0,0,0,76.26,89.55Z" transform="translate(-5 -5)"/><path class="cls-12" d="M77.13,89c0,1.35,1,1.89,2.11,1.22a4.66,4.66,0,0,0,2.12-3.66c0-1.35-1-1.89-2.12-1.22A4.69,4.69,0,0,0,77.13,89Z" transform="translate(-5 -5)"/><path class="cls-13" d="M78.13,88.47c0,.71.5,1,1.11.64a2.46,2.46,0,0,0,1.12-1.93c0-.72-.5-1-1.12-.65A2.48,2.48,0,0,0,78.13,88.47Z" transform="translate(-5 -5)"/><path class="cls-14" d="M82.67,84.58a2.22,2.22,0,0,0-2.23.22,7,7,0,0,0-3.17,5.48,2.23,2.23,0,0,0,.93,2l7.4,4.26,4.48-7.75Z" transform="translate(-5 -5)"/><path class="cls-15" d="M77.86,87.83a6.06,6.06,0,0,0-.59,2.45,2.23,2.23,0,0,0,.93,2l7.4,4.26,1.87-3.22Z" transform="translate(-5 -5)"/><path class="cls-16" d="M84.55,94.47c0,2,1.41,2.83,3.16,1.83a7,7,0,0,0,3.16-5.48c0-2-1.41-2.84-3.16-1.83A7,7,0,0,0,84.55,94.47Z" transform="translate(-5 -5)"/><path class="cls-12" d="M85.47,93.93c0,1.43,1,2,2.24,1.3A5,5,0,0,0,90,91.35c0-1.43-1-2-2.24-1.29A5,5,0,0,0,85.47,93.93Z" transform="translate(-5 -5)"/><path class="cls-17" d="M86.53,93.32c0,.76.53,1.06,1.18.69A2.63,2.63,0,0,0,88.89,92c0-.75-.53-1.06-1.18-.68A2.6,2.6,0,0,0,86.53,93.32Z" transform="translate(-5 -5)"/><path class="cls-13" d="M87.13,93.67c0,.76.53,1.06,1.18.69a2.62,2.62,0,0,0,1.19-2c0-.76-.53-1.06-1.19-.68A2.6,2.6,0,0,0,87.13,93.67Z" transform="translate(-5 -5)"/><path class="cls-12" d="M86.11,88.36c-2.14-1.24-2.61-1.5-4.75-2.73-.2-.11-.19-.32,0-.44h0a.86.86,0,0,1,.75,0c2.14,1.23,2.62,1.49,4.76,2.73.19.11.17.29-.05.41h0A.87.87,0,0,1,86.11,88.36Z" transform="translate(-5 -5)"/><path class="cls-12" d="M84.8,89.49c-2.14-1.24-2.61-1.5-4.75-2.73a.31.31,0,0,1-.06-.52h0a.58.58,0,0,1,.67-.09c2.14,1.23,2.62,1.49,4.76,2.73a.29.29,0,0,1,0,.5h0A.57.57,0,0,1,84.8,89.49Z" transform="translate(-5 -5)"/><path class="cls-12" d="M83.85,90.91c-2.14-1.24-2.62-1.49-4.76-2.73a.44.44,0,0,1-.15-.59h0a.44.44,0,0,1,.58-.16c2.14,1.24,2.62,1.5,4.76,2.73a.41.41,0,0,1,.13.57h0A.41.41,0,0,1,83.85,90.91Z" transform="translate(-5 -5)"/><path class="cls-12" d="M83.31,92.54c-2.14-1.24-2.62-1.5-4.76-2.73a.59.59,0,0,1-.26-.63h0a.32.32,0,0,1,.48-.21c2.14,1.23,2.61,1.49,4.75,2.73a.57.57,0,0,1,.24.62h0A.3.3,0,0,1,83.31,92.54Z" transform="translate(-5 -5)"/><path class="cls-12" d="M83.22,94.29c-2.14-1.23-2.61-1.49-4.75-2.73a.82.82,0,0,1-.38-.65h0c0-.25.16-.35.36-.24,2.14,1.24,2.61,1.5,4.75,2.73a.79.79,0,0,1,.35.65h0C83.56,94.3,83.42,94.41,83.22,94.29Z" transform="translate(-5 -5)"/><polygon class="cls-7" points="62.06 76.78 75.89 84.77 120.99 58.73 120.69 51.66 107.15 50.74 62.06 76.78"/><polygon class="cls-8" points="106.92 51.6 110.02 53.39 108.5 54.26 114.89 57.95 116.4 57.07 119.5 58.87 115.41 61.23 112.31 59.44 110.79 60.31 104.41 56.63 105.92 55.75 102.82 53.96 106.92 51.6"/><polygon class="cls-8" points="101.48 54.73 104.59 56.52 103.07 57.4 109.46 61.09 110.97 60.21 114.08 62 109.98 64.37 106.88 62.57 105.36 63.45 98.98 59.76 100.49 58.89 97.39 57.1 101.48 54.73"/><polygon class="cls-8" points="96.06 57.87 99.16 59.66 97.64 60.53 104.03 64.22 105.54 63.34 108.64 65.14 104.55 67.5 101.44 65.71 99.93 66.58 93.55 62.9 95.06 62.02 91.96 60.23 96.06 57.87"/><polygon class="cls-8" points="90.63 61 93.73 62.8 92.21 63.67 98.59 67.36 100.11 66.48 103.21 68.27 99.12 70.64 96.02 68.84 94.5 69.72 88.12 66.03 89.63 65.16 86.53 63.37 90.63 61"/><polygon class="cls-8" points="85.19 64.14 88.3 65.93 86.78 66.81 93.17 70.49 94.68 69.61 97.78 71.41 93.69 73.77 90.58 71.98 89.07 72.86 82.69 69.17 84.2 68.3 81.1 66.5 85.19 64.14"/><polygon class="cls-8" points="79.76 67.27 82.87 69.07 81.35 69.94 87.73 73.63 89.25 72.75 92.35 74.54 88.26 76.91 85.15 75.11 83.64 75.99 77.26 72.31 78.77 71.43 75.67 69.64 79.76 67.27"/><polygon class="cls-8" points="74.33 70.41 77.44 72.2 75.92 73.08 82.3 76.76 83.82 75.89 86.92 77.68 82.83 80.04 79.72 78.25 78.21 79.13 71.83 75.44 73.34 74.57 70.24 72.77 74.33 70.41"/><polygon class="cls-8" points="68.9 73.54 72.01 75.34 70.49 76.21 76.87 79.9 78.39 79.02 81.49 80.81 77.4 83.18 74.29 81.39 72.78 82.26 66.39 78.58 67.91 77.7 64.81 75.91 68.9 73.54"/><polygon class="cls-9" points="62.06 69.31 75.89 77.29 120.99 51.26 107.15 43.27 62.06 69.31"/><polygon class="cls-10" points="106.92 44.13 110.02 45.92 108.5 46.79 114.89 50.48 116.4 49.6 119.5 51.39 115.41 53.76 112.31 51.97 110.79 52.84 104.41 49.16 105.92 48.28 102.82 46.49 106.92 44.13"/><polygon class="cls-10" points="101.48 47.26 104.59 49.05 103.07 49.93 109.46 53.61 110.97 52.74 114.08 54.53 109.98 56.89 106.88 55.1 105.36 55.98 98.98 52.29 100.49 51.42 97.39 49.63 101.48 47.26"/><polygon class="cls-10" points="96.06 50.4 99.16 52.19 97.64 53.06 104.03 56.75 105.54 55.87 108.64 57.66 104.55 60.03 101.44 58.24 99.93 59.11 93.55 55.43 95.06 54.55 91.96 52.76 96.06 50.4"/><polygon class="cls-10" points="90.63 53.53 93.73 55.32 92.21 56.2 98.59 59.88 100.11 59.01 103.21 60.8 99.12 63.16 96.02 61.37 94.5 62.25 88.12 58.56 89.63 57.69 86.53 55.9 90.63 53.53"/><polygon class="cls-10" points="85.19 56.67 88.3 58.46 86.78 59.33 93.17 63.02 94.68 62.14 97.78 63.94 93.69 66.3 90.58 64.51 89.07 65.38 82.69 61.7 84.2 60.82 81.1 59.03 85.19 56.67"/><polygon class="cls-10" points="79.76 59.8 82.87 61.59 81.35 62.47 87.73 66.15 89.25 65.28 92.35 67.07 88.26 69.44 85.15 67.64 83.64 68.52 77.26 64.83 78.77 63.96 75.67 62.17 79.76 59.8"/><polygon class="cls-10" points="74.33 62.94 77.44 64.73 75.92 65.6 82.3 69.29 83.82 68.41 86.92 70.2 82.83 72.57 79.72 70.78 78.21 71.65 71.83 67.97 73.34 67.09 70.24 65.3 74.33 62.94"/><polygon class="cls-10" points="68.9 66.07 72.01 67.86 70.49 68.74 76.87 72.42 78.39 71.55 81.49 73.34 77.4 75.7 74.29 73.91 72.78 74.79 66.39 71.1 67.91 70.23 64.81 68.44 68.9 66.07"/><path class="cls-9" d="M70,76h0c0-1.87-1.31-2.63-2.93-1.7h0a6.49,6.49,0,0,0-2.93,5.09,2.1,2.1,0,0,0,.77,1.83v0l14,8.21,2-7.16Z" transform="translate(-5 -5)"/><path class="cls-7" d="M64.18,78.7a5.34,5.34,0,0,0-.05.69,2.1,2.1,0,0,0,.77,1.83v0l13.78,8.09L78.53,87Z" transform="translate(-5 -5)"/><path class="cls-11" d="M77.91,87.47c0,1.9,1.33,2.68,3,1.72a6.6,6.6,0,0,0,3-5.17c0-1.91-1.34-2.68-3-1.73A6.61,6.61,0,0,0,77.91,87.47Z" transform="translate(-5 -5)"/><path class="cls-10" d="M79,88.09c0,1.91,1.34,2.68,3,1.73a6.62,6.62,0,0,0,3-5.18c0-1.91-1.34-2.68-3-1.73A6.62,6.62,0,0,0,79,88.09Z" transform="translate(-5 -5)"/><path class="cls-12" d="M79.86,87.59c0,1.34.94,1.89,2.11,1.22a4.68,4.68,0,0,0,2.11-3.66c0-1.35-.94-1.9-2.11-1.22A4.65,4.65,0,0,0,79.86,87.59Z" transform="translate(-5 -5)"/><path class="cls-13" d="M80.85,87c0,.71.5,1,1.12.64a2.45,2.45,0,0,0,1.12-1.93c0-.71-.5-1-1.12-.64A2.45,2.45,0,0,0,80.85,87Z" transform="translate(-5 -5)"/><path class="cls-11" d="M122.46,61.63c0,1.9,1.34,2.67,3,1.72a6.6,6.6,0,0,0,3-5.17c0-1.91-1.34-2.68-3-1.73A6.6,6.6,0,0,0,122.46,61.63Z" transform="translate(-5 -5)"/><path class="cls-10" d="M123.54,62.25c0,1.9,1.33,2.68,3,1.72a6.58,6.58,0,0,0,3-5.17c0-1.91-1.33-2.68-3-1.73A6.61,6.61,0,0,0,123.54,62.25Z" transform="translate(-5 -5)"/><path class="cls-12" d="M124.41,61.74c0,1.35,1,1.9,2.11,1.22a4.66,4.66,0,0,0,2.12-3.66c0-1.34-.95-1.89-2.12-1.22A4.71,4.71,0,0,0,124.41,61.74Z" transform="translate(-5 -5)"/><path class="cls-13" d="M125.41,61.17c0,.71.5,1,1.11.64a2.45,2.45,0,0,0,1.12-1.93c0-.71-.5-1-1.12-.65A2.5,2.5,0,0,0,125.41,61.17Z" transform="translate(-5 -5)"/><path class="cls-14" d="M130,57.28a2.22,2.22,0,0,0-2.24.23A7,7,0,0,0,124.55,63a2.21,2.21,0,0,0,.93,2l7.41,4.26,4.47-7.75Z" transform="translate(-5 -5)"/><path class="cls-15" d="M125.14,60.54a6.19,6.19,0,0,0-.59,2.45,2.21,2.21,0,0,0,.93,2l7.41,4.26,1.86-3.22Z" transform="translate(-5 -5)"/><path class="cls-16" d="M131.83,67.17c0,2,1.41,2.84,3.16,1.83a7,7,0,0,0,3.17-5.48c0-2-1.42-2.84-3.17-1.83A7,7,0,0,0,131.83,67.17Z" transform="translate(-5 -5)"/><path class="cls-12" d="M132.76,66.64c0,1.42,1,2,2.23,1.29a5,5,0,0,0,2.24-3.88c0-1.42-1-2-2.24-1.29A5,5,0,0,0,132.76,66.64Z" transform="translate(-5 -5)"/><path class="cls-17" d="M133.81,66c0,.75.53,1.06,1.18.68a2.59,2.59,0,0,0,1.18-2c0-.75-.52-1.06-1.18-.68A2.62,2.62,0,0,0,133.81,66Z" transform="translate(-5 -5)"/><path class="cls-13" d="M134.41,66.37c0,.76.53,1.06,1.19.69a2.63,2.63,0,0,0,1.18-2c0-.75-.53-1.06-1.18-.68A2.58,2.58,0,0,0,134.41,66.37Z" transform="translate(-5 -5)"/><path class="cls-12" d="M133.4,61.06c-2.14-1.24-2.62-1.49-4.76-2.73-.2-.11-.19-.31,0-.43h0a.86.86,0,0,1,.75,0c2.14,1.23,2.62,1.49,4.76,2.73.19.11.17.29-.05.41h0A.82.82,0,0,1,133.4,61.06Z" transform="translate(-5 -5)"/><path class="cls-12" d="M132.08,62.19c-2.14-1.24-2.61-1.49-4.75-2.73a.31.31,0,0,1-.06-.52h0a.61.61,0,0,1,.68-.09c2.14,1.24,2.61,1.49,4.75,2.73a.29.29,0,0,1,0,.5h0A.59.59,0,0,1,132.08,62.19Z" transform="translate(-5 -5)"/><path class="cls-12" d="M131.13,63.61c-2.14-1.23-2.61-1.49-4.75-2.73a.43.43,0,0,1-.16-.58h0a.43.43,0,0,1,.59-.16c2.14,1.23,2.61,1.49,4.75,2.73a.4.4,0,0,1,.13.57h0A.41.41,0,0,1,131.13,63.61Z" transform="translate(-5 -5)"/><path class="cls-12" d="M130.59,65.24c-2.14-1.23-2.62-1.49-4.76-2.73a.61.61,0,0,1-.26-.63h0a.32.32,0,0,1,.48-.21c2.14,1.24,2.62,1.5,4.76,2.73A.58.58,0,0,1,131,65h0A.3.3,0,0,1,130.59,65.24Z" transform="translate(-5 -5)"/><path class="cls-12" d="M130.5,67c-2.14-1.24-2.61-1.5-4.75-2.73a.86.86,0,0,1-.38-.66h0c0-.24.16-.35.36-.24,2.14,1.24,2.61,1.5,4.75,2.73a.82.82,0,0,1,.35.65h0C130.84,67,130.7,67.11,130.5,67Z" transform="translate(-5 -5)"/><polygon class="cls-6" points="58.4 115.06 53.44 112.2 53.44 77.76 25.77 61.78 20.81 53.19 58.4 74.89 58.4 115.06"/><polygon class="cls-17" points="65.08 27.63 20.81 53.19 58.4 74.89 102.67 49.33 65.08 27.63"/><polygon class="cls-18" points="58.4 115.06 58.4 74.89 102.67 49.33 102.67 89.5 58.4 115.06"/><polygon class="cls-5" points="61.26 76.54 99.82 54.27 99.82 87.86 61.26 110.12 61.26 76.54"/><polygon class="cls-6" points="99.82 87.86 99.82 54.27 97.45 55.64 97.45 86.49 99.82 87.86"/><polygon class="cls-17" points="97.45 86.49 61.26 107.39 61.26 110.12 99.82 87.86 97.45 86.49"/><path class="cls-19" d="M88.49,79.87l-.57-.82c-.25-.35-.71-.39-1.21-.11l-3.38,2a.94.94,0,0,1,1.28.17l.31.44L86,83l-.49.59.74-.23,2-.63.55-2.45.23-1Z" transform="translate(-5 -5)"/><path class="cls-19" d="M84.43,81.5l.31.44-1.17,3-2.51-.26L81.73,83h0A3.47,3.47,0,0,1,83,81.44l.2-.11A.94.94,0,0,1,84.43,81.5Z" transform="translate(-5 -5)"/><path class="cls-19" d="M79.76,88.07l-.58,1.48a1.86,1.86,0,0,0,0,1.61l1.69,2.41a2.18,2.18,0,0,1,0-1.77l.31-.78,1-2.67.48.06-.23-.71-.6-1.93L80,87.37l-.75.65Z" transform="translate(-5 -5)"/><path class="cls-19" d="M81.4,91.53l.31-.79,2.21-1.28,0,3.38-1.22.71h0a1,1,0,0,1-1.22-.12l-.09-.14A2.11,2.11,0,0,1,81.4,91.53Z" transform="translate(-5 -5)"/><path class="cls-19" d="M86.54,91.32l1.15-.67a3,3,0,0,0,1.2-1.5l1.69-4.35a3.37,3.37,0,0,1-1.32,1.58l-.61.36-2.07,1.19v-.65l-.52.94-1.4,2.55,1.33.86.53.34Z" transform="translate(-5 -5)"/><path class="cls-19" d="M89,86l-.61.35L87.3,84.82l2.54-3.12.58.84h0a2.08,2.08,0,0,1,0,1.63l-.1.25A3.43,3.43,0,0,1,89,86Z" transform="translate(-5 -5)"/><path class="cls-11" d="M48.34,64.9c-2.78-1.61-2.78-4.21,0-5.82a11.12,11.12,0,0,1,10.08,0c2.79,1.61,2.79,4.21,0,5.82A11.12,11.12,0,0,1,48.34,64.9Z" transform="translate(-5 -5)"/><path class="cls-10" d="M48.34,62.8c-2.78-1.61-2.78-4.21,0-5.82a11.12,11.12,0,0,1,10.08,0c2.79,1.61,2.79,4.21,0,5.82A11.12,11.12,0,0,1,48.34,62.8Z" transform="translate(-5 -5)"/><path class="cls-12" d="M49.82,62c-2-1.14-2-3,0-4.12a7.92,7.92,0,0,1,7.13,0c2,1.14,2,3,0,4.12A7.86,7.86,0,0,1,49.82,62Z" transform="translate(-5 -5)"/><ellipse class="cls-13" cx="48.38" cy="54.89" rx="2.66" ry="1.54"/><path class="cls-18" d="M71.57,19.8,98.29,35.23c2.07,1.19,3,4.19,4,6.49,1.32,3,5.36,12.61,5.36,12.61L86.27,66.69l-18.72-45C67.77,19.41,69.51,18.61,71.57,19.8Z" transform="translate(-5 -5)"/><path class="cls-6" d="M80.66,53.18,67.55,21.65c.22-2.24,2-3,4-1.85L98.29,35.23c1.82,1.05,2.77,3.51,3.66,5.65Z" transform="translate(-5 -5)"/><polygon class="cls-17" points="63.68 14.37 50.51 22.02 81.07 39.82 94.95 31.81 93.21 30.09 66.49 14.67 63.68 14.37"/><polygon class="cls-10" points="66.33 14.65 66.49 14.67 93.11 30.04 79.78 37.85 53.18 22.36 66.33 14.65"/><path class="cls-6" d="M58.18,27.36,84.9,42.78a9,9,0,0,1,4,6.49L86.2,66.55,48.79,45s4.07-12.19,5.49-16.06C55.05,26.78,56.11,26.16,58.18,27.36Z" transform="translate(-5 -5)"/><path class="cls-9" d="M56.07,45.84l19.13,11c3.12,1.8,4.67-1.25,5.65-3.27,1.26-2.59,4.05-10.8,4.05-10.8L58.18,27.36s-3.06,8.08-4,10.79C52.91,41.53,52.94,44,56.07,45.84Z" transform="translate(-5 -5)"/><polygon class="cls-20" points="56.95 22.35 66.4 27.86 66.4 16.81 56.95 22.35"/><polygon class="cls-9" points="89.33 30.05 66.4 16.81 66.4 27.86 79.78 35.65 89.33 30.05"/></svg>