<svg id="Capa_1" data-name="Capa 1" xmlns="http://www.w3.org/2000/svg" xmlns:xlink="http://www.w3.org/1999/xlink" viewBox="0 0 140 144.4"><defs><style>.cls-1{fill:none;}.cls-2{fill:#ecf0f8;}.cls-3{clip-path:url(#clip-path);}.cls-4{fill:#eebe20;}.cls-5{fill:#f6e3ae;}.cls-6{fill:#7e7b79;}.cls-7{fill:#ededed;}.cls-8{fill:#b14f34;}</style><clipPath id="clip-path" transform="translate(-5 -5)"><circle class="cls-1" cx="75" cy="75" r="70"/></clipPath></defs><title>MQ-001</title><circle class="cls-2" cx="70" cy="70" r="70"/><g class="cls-3"><path class="cls-4" d="M100,43.52V59a4.74,4.74,0,0,1-4.75,4.75H54.73A4.75,4.75,0,0,1,50,59V43.52a4.75,4.75,0,0,1,4.75-4.75H95.29A4.75,4.75,0,0,1,100,43.52Z" transform="translate(-5 -5)"/><path class="cls-5" d="M95.28,60.19H61.39a1.19,1.19,0,1,1,0-2.37H94.1V43.52a1.19,1.19,0,1,1,2.37,0V59A1.19,1.19,0,0,1,95.28,60.19Zm-38.64,0H54.73a1.19,1.19,0,1,1,0-2.37h1.91a1.19,1.19,0,1,1,0,2.37Z" transform="translate(-5 -5)"/><path class="cls-6" d="M88.2,63.75,78,126.25a3,3,0,0,1-5.88,0L61.81,63.75Z" transform="translate(-5 -5)"/><path class="cls-7" d="M74.81,119a1.17,1.17,0,0,1-1-1.36L82,67.83a1.2,1.2,0,0,1,1.37-1,1.19,1.19,0,0,1,1,1.37L76.18,118A1.19,1.19,0,0,1,74.81,119Z" transform="translate(-5 -5)"/><rect class="cls-6" x="95.03" y="43.52" width="8.09" height="5.49"/><path class="cls-4" d="M108.12,56.16V46.37h21.49A2.37,2.37,0,0,1,132,48.74v5a2.38,2.38,0,0,1-2.37,2.38Z" transform="translate(-5 -5)"/><rect class="cls-6" x="36.89" y="43.52" width="8.09" height="5.49"/><path class="cls-4" d="M41.89,46.37v9.79H20.41A2.39,2.39,0,0,1,18,53.78v-5a2.38,2.38,0,0,1,2.38-2.37Z" transform="translate(-5 -5)"/><path class="cls-8" d="M143.3,105.68,132.68,149.4H17.33L6.71,105.68H57.14l3.68,22.41a14.37,14.37,0,0,0,28.37,0l3.68-22.41Z" transform="translate(-5 -5)"/><path class="cls-5" d="M127.38,52.84H112.72a1.19,1.19,0,0,1,0-2.38h14.66a1.19,1.19,0,0,1,0,2.38Z" transform="translate(-5 -5)"/><path class="cls-5" d="M37.29,52.84H22.63a1.19,1.19,0,0,1,0-2.38H37.29a1.19,1.19,0,0,1,0,2.38Z" transform="translate(-5 -5)"/><path d="M61.32,49.21v4.11a1.19,1.19,0,1,0,2.37,0V49.21a1.19,1.19,0,1,0-2.37,0Z" transform="translate(-5 -5)"/><path d="M67.57,53.32a1.19,1.19,0,1,0,2.37,0V49.21a1.19,1.19,0,1,0-2.37,0Z" transform="translate(-5 -5)"/><path d="M76.19,53.32V49.21a1.19,1.19,0,1,0-2.37,0v4.11a1.19,1.19,0,1,0,2.37,0Z" transform="translate(-5 -5)"/><path d="M82.45,53.32V49.21a1.19,1.19,0,1,0-2.38,0v4.11a1.19,1.19,0,1,0,2.38,0Z" transform="translate(-5 -5)"/><path d="M88.7,53.32V49.21a1.19,1.19,0,0,0-2.38,0v4.11a1.19,1.19,0,1,0,2.38,0Z" transform="translate(-5 -5)"/><path d="M63.5,74.08a1.19,1.19,0,1,0-1.36-1A1.18,1.18,0,0,0,63.5,74.08Z" transform="translate(-5 -5)"/><path d="M95.29,64.94A6,6,0,0,0,101.22,59V55.19h5.72v1a1.18,1.18,0,0,0,1.18,1.18h21.49a3.56,3.56,0,0,0,3.56-3.56v-5a3.57,3.57,0,0,0-3.56-3.56H108.12a1.18,1.18,0,0,0-1.18,1.19v1h-5.72V43.52a5.94,5.94,0,0,0-5.93-5.93H70A1.19,1.19,0,1,0,70,40H95.29a3.57,3.57,0,0,1,3.56,3.56V59a3.57,3.57,0,0,1-3.56,3.56H54.73A3.57,3.57,0,0,1,51.17,59V43.52A3.57,3.57,0,0,1,54.73,40h5.8a1.19,1.19,0,0,0,0-2.37h-5.8a6,6,0,0,0-5.94,5.93v3.81H43.08v-1a1.19,1.19,0,0,0-1.19-1.19H20.41a3.56,3.56,0,0,0-3.56,3.56v5a3.56,3.56,0,0,0,3.56,3.56H41.89a1.18,1.18,0,0,0,1.19-1.18v-1h5.71V59a6,6,0,0,0,5.94,5.94H60.8l.57,3.47A1.19,1.19,0,1,0,63.72,68l-.51-3.09H86.8l-1.3,8L65.6,79.55l-.35-2.15a1.19,1.19,0,1,0-2.34.39l.41,2.52-3.87,1.3a1.19,1.19,0,0,0,.75,2.25l3.51-1.17,1,6.13-3.81,1.27a1.19,1.19,0,1,0,.7,2.27l3.5-1.17,1,6.13-3.87,1.29a1.19,1.19,0,0,0,.75,2.26l3.51-1.17,1,6.13-3.87,1.29a1.19,1.19,0,1,0,.76,2.25l3.5-1.17,1,6.13L65,115.62a1.19,1.19,0,0,0,.75,2.25l3.51-1.17,1,6.14-3.87,1.29a1.19,1.19,0,1,0,.76,2.25l3.5-1.17.21,1.23a4.17,4.17,0,0,0,8.22,0l.7-4.28,4.71-1.57a1.19,1.19,0,0,0-.75-2.25l-3.53,1.18,1.13-6.85,4.71-1.57a1.19,1.19,0,1,0-.76-2.25L81.81,110l1.12-6.83,4.71-1.58a1.19,1.19,0,1,0-.75-2.25l-3.52,1.18,1.12-6.84,4.71-1.57a1.19,1.19,0,0,0-.75-2.25l-3.52,1.17,1.12-6.84,4.71-1.57A1.19,1.19,0,1,0,90,80.39l-3.52,1.17,1.13-6.84,4.7-1.57a1.19,1.19,0,0,0-.75-2.25L88,72.07l1.17-7.13Zm14-17.38h20.3a1.19,1.19,0,0,1,1.19,1.18v5A1.19,1.19,0,0,1,129.61,55h-20.3Zm-2.37,2.15v3.11h-5.72V49.71ZM40.7,55H20.41a1.19,1.19,0,0,1-1.19-1.19v-5a1.18,1.18,0,0,1,1.19-1.18H40.7Zm2.38-2.15V49.71h5.71v3.11Zm33.7,73.23a1.79,1.79,0,0,1-3.54,0l-.27-1.6L77.28,123Zm.93-5.69-5.13,1.71-1-6.13,7.25-2.42Zm1.56-9.49-8.08,2.7-1-6.13L80.39,104Zm1.56-9.48-11,3.68-1-6.13L82,94.55Zm1.55-9.49-14,4.66-1-6.13L83.5,85.06Zm1.56-9.49L67,88.06l-1-6.13,19.07-6.36Z" transform="translate(-5 -5)"/><path d="M65.27,37.59a1.19,1.19,0,1,1-1.18,1.18A1.18,1.18,0,0,1,65.27,37.59Z" transform="translate(-5 -5)"/><circle cx="104.56" cy="100.68" r="1.19"/><path d="M5.52,105.68a1.19,1.19,0,0,0,1.19,1.19H56.14l3.51,21.42a15.57,15.57,0,0,0,30.72,0l3.51-21.41h10.93a1.19,1.19,0,1,0,0-2.37H92.87a1.17,1.17,0,0,0-1.17,1L88,127.89a13.19,13.19,0,0,1-26,0l-3.68-22.41a1.17,1.17,0,0,0-1.17-1H6.71A1.19,1.19,0,0,0,5.52,105.68Z" transform="translate(-5 -5)"/><path d="M143.3,104.5h-29a1.19,1.19,0,1,0,0,2.37h29a1.19,1.19,0,1,0,0-2.37Z" transform="translate(-5 -5)"/><path d="M29.67,120.08v-.61a1.19,1.19,0,0,0-2.38,0v.61a1.19,1.19,0,0,0,2.38,0Z" transform="translate(-5 -5)"/><path d="M104.32,118.39v-.61a1.19,1.19,0,1,0-2.37,0v.61a1.19,1.19,0,1,0,2.37,0Z" transform="translate(-5 -5)"/><path d="M96.25,140.45v-.62a1.19,1.19,0,1,0-2.37,0v.62a1.19,1.19,0,0,0,2.37,0Z" transform="translate(-5 -5)"/><path d="M106.94,133.71v.61a1.19,1.19,0,1,0,2.37,0v-.61a1.19,1.19,0,1,0-2.37,0Z" transform="translate(-5 -5)"/><path d="M50.67,136.39a1.18,1.18,0,0,0-1.18,1.19v.61a1.19,1.19,0,1,0,2.37,0v-.61A1.19,1.19,0,0,0,50.67,136.39Z" transform="translate(-5 -5)"/><path d="M122.49,138.19v.61a1.19,1.19,0,1,0,2.37,0v-.61a1.19,1.19,0,1,0-2.37,0Z" transform="translate(-5 -5)"/><path d="M119,124.37v-.61a1.19,1.19,0,1,0-2.37,0v.61a1.19,1.19,0,1,0,2.37,0Z" transform="translate(-5 -5)"/><path d="M24,138.5v-.62a1.19,1.19,0,0,0-2.38,0v.62a1.19,1.19,0,0,0,2.38,0Z" transform="translate(-5 -5)"/><path d="M37.86,130.88v-.61a1.19,1.19,0,1,0-2.38,0v.61a1.19,1.19,0,1,0,2.38,0Z" transform="translate(-5 -5)"/><path d="M125.45,114v-.61a1.19,1.19,0,1,0-2.37,0V114a1.19,1.19,0,1,0,2.37,0Z" transform="translate(-5 -5)"/><path d="M42.25,118.08v-.61a1.19,1.19,0,1,0-2.38,0v.61a1.19,1.19,0,1,0,2.38,0Z" transform="translate(-5 -5)"/></g></svg>