<svg id="Capa_1" data-name="Capa 1" xmlns="http://www.w3.org/2000/svg" viewBox="0 0 140 140"><defs><style>.cls-1{fill:#ecf0f8;}.cls-2{fill:#1e2837;}.cls-3{fill:#fdcc21;}.cls-4{fill:#fff;}.cls-5{fill:#5aa4da;}</style></defs><title>MQ-006</title><circle class="cls-1" cx="70" cy="70" r="70"/><path class="cls-2" d="M92.88,115.4h-.07v-2.78h.07c.88,0,1.77,0,2.64-.08l.17,2.77C94.76,115.37,93.82,115.4,92.88,115.4Zm-3-.1c-1-.06-1.92-.16-2.87-.28l.36-2.75c.89.11,1.79.2,2.69.26Zm8.64-.26-.35-2.75c.89-.12,1.79-.26,2.68-.43l.52,2.72C100.47,114.77,99.51,114.92,98.56,115Zm5.67-1.1-.71-2.68c.87-.23,1.74-.49,2.6-.77l.88,2.63C106.09,113.42,105.15,113.7,104.23,113.94Zm5.47-1.82-1-2.57c.83-.34,1.66-.71,2.46-1.1l1.22,2.49C111.48,111.36,110.59,111.76,109.7,112.12Zm5.19-2.52-1.37-2.41c.78-.44,1.55-.92,2.31-1.41l1.52,2.32C116.55,108.62,115.72,109.13,114.89,109.6Zm4.82-3.16L118,104.22c.72-.54,1.42-1.11,2.11-1.7l1.81,2.11C121.23,105.25,120.47,105.86,119.71,106.44Zm4.37-3.76-1.94-2c.64-.63,1.27-1.28,1.88-2l2.06,1.85C125.44,101.3,124.77,102,124.08,102.68Zm3.86-4.3-2.18-1.71c.56-.71,1.1-1.44,1.61-2.18l2.28,1.57C129.11,96.85,128.53,97.63,127.94,98.38Zm3.27-4.75-2.38-1.42c.46-.78.9-1.57,1.31-2.37l2.47,1.26C132.18,92,131.71,92.81,131.21,93.63Zm2.64-5.14-2.55-1.1c.36-.83.69-1.68,1-2.53l2.61.94C134.59,86.7,134.23,87.61,133.85,88.49Zm1.94-5.44-2.67-.76c.25-.87.47-1.75.66-2.63l2.71.59C136.29,81.19,136.05,82.13,135.79,83.05ZM137,77.41,134.27,77c.13-.89.23-1.79.31-2.69l2.76.23C137.26,75.5,137.15,76.46,137,77.41Zm.48-5.75-2.77,0v-.83c0-.62,0-1.26,0-1.88l2.78-.12c0,.66,0,1.34,0,2C137.5,71.08,137.5,71.37,137.49,71.66Zm-3-5.46c-.1-.89-.23-1.8-.38-2.68l2.73-.48c.17.94.3,1.91.41,2.86Zm-.94-5.33c-.21-.87-.45-1.75-.72-2.61l2.65-.83c.28.92.54,1.85.77,2.79Zm-1.61-5.16c-.33-.84-.68-1.68-1.06-2.49l2.52-1.17c.4.87.78,1.77,1.13,2.66Zm-2.27-4.9c-.43-.79-.89-1.58-1.37-2.34L130.63,47c.51.81,1,1.65,1.46,2.49Zm-2.89-4.58c-.53-.72-1.09-1.44-1.66-2.13l2.14-1.78c.61.74,1.2,1.51,1.77,2.28Zm-3.45-4.16c-.62-.66-1.27-1.3-1.93-1.91l1.9-2c.7.65,1.39,1.34,2,2Zm-4-3.69c-.69-.57-1.42-1.12-2.15-1.65l1.62-2.26c.78.56,1.55,1.15,2.29,1.76ZM115,35.23c-.76-.48-1.55-.93-2.34-1.36l1.31-2.44c.84.45,1.68.93,2.5,1.44ZM71.2,35l-1.44-2.37c.82-.5,1.67-1,2.52-1.42l1.28,2.46C72.76,34.08,72,34.53,71.2,35Zm39-2.32c-.82-.37-1.67-.72-2.51-1l1-2.6c.89.34,1.79.72,2.66,1.11ZM76,32.49,74.88,30c.88-.39,1.78-.75,2.68-1.08l1,2.61C77.67,31.79,76.82,32.13,76,32.49Zm29.11-1.73c-.86-.27-1.74-.5-2.61-.71l.63-2.7c.93.22,1.87.47,2.79.75Zm-24-.13L80.3,28c.92-.27,1.86-.52,2.79-.72L83.7,30C82.82,30.15,81.94,30.38,81.08,30.63Zm18.76-1.11c-.88-.15-1.78-.27-2.68-.36l.28-2.76c1,.09,1.92.22,2.86.38Zm-13.48-.07-.43-2.74c.95-.15,1.91-.27,2.87-.36l.25,2.77C88.15,29.2,87.25,29.31,86.36,29.45Zm8.1-.48c-.52,0-1,0-1.58,0l-1.13,0-.07-2.78h1.2c.56,0,1.13,0,1.68,0Z" transform="translate(-5 -5)"/><path class="cls-2" d="M70.21,133.15h-.27c-.55,0-1.1,0-1.64-.07l.21-2.77c.48,0,1,.06,1.46.07s.77,0,1.15,0l.12,2.77C70.9,133.14,70.55,133.15,70.21,133.15Zm4-.33-.45-2.74a20.17,20.17,0,0,0,2.53-.59l.79,2.66A23,23,0,0,1,74.16,132.82Zm-8.78-.16a24.77,24.77,0,0,1-2.84-.77l.89-2.63a19.35,19.35,0,0,0,2.51.68Zm14.42-1.52-1.12-2.54A21.89,21.89,0,0,0,81,127.41l1.42,2.38A23.87,23.87,0,0,1,79.8,131.14Zm-20-.37a23.11,23.11,0,0,1-2.57-1.44L58.75,127A20.21,20.21,0,0,0,61,128.27Zm25-2.64-1.7-2.19a21.22,21.22,0,0,0,2-1.72l2,2A22.72,22.72,0,0,1,84.84,128.13Zm-30-.55a22.7,22.7,0,0,1-2.13-2l2-1.89a21.17,21.17,0,0,0,1.88,1.79ZM89,124l-2.19-1.71a20.89,20.89,0,0,0,1.48-2.14l2.38,1.43A25.34,25.34,0,0,1,89,124Zm-38.15-.7a25.41,25.41,0,0,1-1.58-2.48l2.43-1.34a21.93,21.93,0,0,0,1.4,2.19ZM92,119l-2.54-1.13a21,21,0,0,0,.91-2.44l2.65.8A23,23,0,0,1,92,119Zm-44-.81a24.77,24.77,0,0,1-.92-2.8l2.68-.7a21,21,0,0,0,.82,2.47Zm-1.49-5.69a23.77,23.77,0,0,1-.21-2.93l2.77,0a22.57,22.57,0,0,0,.19,2.6Zm2.7-5.56-2.76-.31a23.06,23.06,0,0,1,.47-2.74l2.7.62A22.41,22.41,0,0,0,49.23,106.89Z" transform="translate(-5 -5)"/><path class="cls-2" d="M47.8,69.42h0a23.17,23.17,0,0,1-3-.23l.4-2.75a19.29,19.29,0,0,0,2.63.21h0Zm3-.18-.35-2.75A20.29,20.29,0,0,0,53,66l.73,2.68A22.77,22.77,0,0,1,50.81,69.24Zm-9-.7a22.34,22.34,0,0,1-2.83-1L40.12,65a18.29,18.29,0,0,0,2.47.91Zm14.81-.87-1.09-2.55a19.91,19.91,0,0,0,2.35-1.19l1.42,2.38A22.47,22.47,0,0,1,56.62,67.67Zm-20.3-1.59a22.29,22.29,0,0,1-2.44-1.77l1.78-2.13a18.89,18.89,0,0,0,2.13,1.54Zm25.46-1.49-1.73-2.17A19.12,19.12,0,0,0,62,60.64l2,1.92A22.45,22.45,0,0,1,61.78,64.59ZM31.7,62.23a23.6,23.6,0,0,1-1.88-2.35l2.29-1.58a20.29,20.29,0,0,0,1.64,2.06Zm34.22-2-2.25-1.62a20.92,20.92,0,0,0,1.4-2.24l2.45,1.3A21.1,21.1,0,0,1,65.92,60.24Zm-37.63-3a21.87,21.87,0,0,1-1.18-2.78l2.63-.9a19.69,19.69,0,0,0,1,2.42Zm40.46-2.36-2.61-1a18.31,18.31,0,0,0,.73-2.53l2.72.59A24.61,24.61,0,0,1,68.75,54.93ZM26.33,51.6a21.42,21.42,0,0,1-.37-3l2.77-.16a18.81,18.81,0,0,0,.33,2.61ZM70,49.05l-2.77-.22c0-.42,0-.86.06-1.29v-.21c0-.38,0-.76,0-1.13L70.05,46c0,.42,0,.86,0,1.29a1.93,1.93,0,0,1,0,.24C70.08,48.06,70.06,48.56,70,49.05ZM28.75,45.81,26,45.6a22.75,22.75,0,0,1,.43-3l2.72.59A19,19,0,0,0,28.75,45.81ZM67,43.58A18.7,18.7,0,0,0,66.26,41l2.63-.9a21.87,21.87,0,0,1,.78,2.91Zm-37.08-2.9-2.6-1A21.16,21.16,0,0,1,28.5,37L31,38.27A19.26,19.26,0,0,0,29.87,40.68Zm35.37-2.06a19.12,19.12,0,0,0-1.35-2.27l2.28-1.58a22.64,22.64,0,0,1,1.54,2.59ZM32.34,36l-2.25-1.62A23.73,23.73,0,0,1,32,32.09L34,34A20.31,20.31,0,0,0,32.34,36Zm29.9-1.74a19.26,19.26,0,0,0-1.91-1.81l1.78-2.14a22.53,22.53,0,0,1,2.18,2.08ZM36,32.23l-1.73-2.17a21.86,21.86,0,0,1,2.48-1.71l1.42,2.38A20,20,0,0,0,36,32.23Zm22.23-1.3a19.21,19.21,0,0,0-2.33-1.23L57,27.16a22.75,22.75,0,0,1,2.67,1.42ZM40.49,29.54,39.41,27a20.44,20.44,0,0,1,2.85-1L43,28.68A19.79,19.79,0,0,0,40.49,29.54Zm12.91-.75a20.43,20.43,0,0,0-2.58-.56l.41-2.75a22.65,22.65,0,0,1,2.94.64Zm-7.84-.61-.34-2.76a23.11,23.11,0,0,1,3-.17l0,2.78A19.29,19.29,0,0,0,45.56,28.18Z" transform="translate(-5 -5)"/><path class="cls-3" d="M49.66,57.42l2.57,3.08a1.27,1.27,0,0,0,1.59.29l2.67-1.5a1.26,1.26,0,0,0,.57-1.51L55.77,54a10.41,10.41,0,0,0,1.8-3.05l4-.69a1.25,1.25,0,0,0,1-1.23l0-3.06a1.28,1.28,0,0,0-1-1.25l-3.93-.77a10.11,10.11,0,0,0-1.74-3.09l1.38-3.76a1.26,1.26,0,0,0-.54-1.52L54.11,34a1.26,1.26,0,0,0-1.59.26l-2.64,3a9.32,9.32,0,0,0-1.77-.17,10.39,10.39,0,0,0-1.77.13l-2.56-3.07a1.27,1.27,0,0,0-1.6-.29l-2.66,1.5a1.27,1.27,0,0,0-.58,1.51l1.3,3.79a10.18,10.18,0,0,0-1.81,3l-3.94.68a1.27,1.27,0,0,0-1.05,1.23l0,3.06a1.27,1.27,0,0,0,1,1.26l3.93.77a10.32,10.32,0,0,0,1.73,3.09l-1.37,3.75a1.26,1.26,0,0,0,.54,1.53l2.63,1.56a1.27,1.27,0,0,0,1.6-.26l2.63-3a11.54,11.54,0,0,0,1.77.17A10.24,10.24,0,0,0,49.66,57.42Zm-1.71-5a5.12,5.12,0,1,1,5.17-5.06A5.12,5.12,0,0,1,48,52.45Z" transform="translate(-5 -5)"/><circle class="cls-4" cx="48" cy="47.33" r="5.11" transform="translate(-24.41 42.07) rotate(-44.37)"/><path class="cls-2" d="M53.2,62.34a2.67,2.67,0,0,1-2-1L49.09,58.9c-.41,0-.81.05-1.21.05a12.09,12.09,0,0,1-1.21-.08l-2.13,2.44a2.66,2.66,0,0,1-3.36.54l-2.63-1.56a2.65,2.65,0,0,1-1.14-3.19l1.12-3.05a11.22,11.22,0,0,1-1.19-2.11l-3.18-.62A2.66,2.66,0,0,1,32,48.69l0-3.06A2.67,2.67,0,0,1,34.25,43l3.19-.55a11.21,11.21,0,0,1,1.24-2.08l-1-3.07a2.65,2.65,0,0,1,1.21-3.17l2.66-1.5a2.65,2.65,0,0,1,3.34.61l2.08,2.49a11.3,11.3,0,0,1,2.42,0l2.13-2.45a2.66,2.66,0,0,1,3.35-.54l2.63,1.56a2.66,2.66,0,0,1,1.14,3.2l-1.11,3a11.49,11.49,0,0,1,1.18,2.11l3.18.63A2.65,2.65,0,0,1,64,46L64,49a2.65,2.65,0,0,1-2.2,2.58l-3.19.56a12.1,12.1,0,0,1-1.23,2.08l1.05,3.07a2.66,2.66,0,0,1-1.21,3.17L54.5,62A2.63,2.63,0,0,1,53.2,62.34Zm-3-6.41,3,3.6,2.49-1.4L54.2,53.69l.51-.61a8.79,8.79,0,0,0,1.57-2.63l.28-.74,4.62-.81,0-2.85-4.61-.9-.26-.75a8.91,8.91,0,0,0-1.5-2.67l-.51-.61L56,36.71l-2.46-1.46-3.08,3.54-.78-.15a9.43,9.43,0,0,0-3.06,0l-.79.13-3-3.6-2.49,1.4L41.81,41l-.52.6a8.81,8.81,0,0,0-1.56,2.64l-.28.74-4.62.8,0,2.86,4.6.9.26.75a8.89,8.89,0,0,0,1.51,2.66l.5.62L40.05,58l2.46,1.45,3.09-3.53.78.14a9.67,9.67,0,0,0,1.53.15,7.83,7.83,0,0,0,1.53-.12ZM48,53.83h-.07a6.61,6.61,0,1,1,.07,0Zm0-2.77A3.73,3.73,0,1,0,48,43.61a3.72,3.72,0,0,0-3.76,3.68A3.73,3.73,0,0,0,48,51.06Z" transform="translate(-5 -5)"/><path class="cls-5" d="M71.86,119.35l2.57,3.08a1.26,1.26,0,0,0,1.59.29l2.66-1.5a1.26,1.26,0,0,0,.58-1.51L78,115.92a10.22,10.22,0,0,0,1.81-3l3.94-.69A1.25,1.25,0,0,0,84.76,111l0-3.06a1.27,1.27,0,0,0-1-1.25l-3.92-.77a10.11,10.11,0,0,0-1.74-3.09L79.49,99a1.26,1.26,0,0,0-.55-1.52l-2.63-1.56a1.27,1.27,0,0,0-1.6.26l-2.63,3A10.21,10.21,0,0,0,70.31,99a10.39,10.39,0,0,0-1.77.13L66,96.1a1.26,1.26,0,0,0-1.59-.29l-2.66,1.5a1.26,1.26,0,0,0-.58,1.51l1.3,3.79a10,10,0,0,0-1.81,3l-3.94.68a1.28,1.28,0,0,0-1,1.24l0,3a1.27,1.27,0,0,0,1,1.26l3.92.77a10.35,10.35,0,0,0,1.74,3.09l-1.38,3.76a1.26,1.26,0,0,0,.55,1.52l2.63,1.56a1.27,1.27,0,0,0,1.6-.26l2.63-3a11.3,11.3,0,0,0,1.77.17A9.47,9.47,0,0,0,71.86,119.35Zm-1.72-5a5.12,5.12,0,1,1,5.17-5.06A5.11,5.11,0,0,1,70.14,114.38Z" transform="translate(-5 -5)"/><path class="cls-4" d="M75.31,109.32a5.11,5.11,0,1,0-5.17,5.06A5.11,5.11,0,0,0,75.31,109.32Z" transform="translate(-5 -5)"/><path class="cls-2" d="M75.4,124.27a2.65,2.65,0,0,1-2-1l-2.08-2.49c-.4,0-.8,0-1.21,0s-.8,0-1.2-.08l-2.14,2.44a2.65,2.65,0,0,1-3.35.54l-2.63-1.56A2.65,2.65,0,0,1,59.61,119l1.12-3a11.46,11.46,0,0,1-1.19-2.1l-3.18-.63a2.64,2.64,0,0,1-2.14-2.63l0-3.06a2.64,2.64,0,0,1,2.2-2.58l3.19-.56a11.54,11.54,0,0,1,1.24-2.08l-1.05-3.07A2.64,2.64,0,0,1,61,96.1l2.66-1.5a2.65,2.65,0,0,1,3.34.61l2.08,2.49c.4,0,.8,0,1.21,0s.8,0,1.21.08l2.13-2.45A2.64,2.64,0,0,1,77,94.75l2.63,1.55a2.66,2.66,0,0,1,1.14,3.2l-1.12,3a11.88,11.88,0,0,1,1.19,2.11l3.18.63a2.63,2.63,0,0,1,2.14,2.63l0,3.06a2.65,2.65,0,0,1-2.2,2.58l-3.19.56a11.54,11.54,0,0,1-1.24,2.08l1,3.07a2.64,2.64,0,0,1-1.21,3.17l-2.66,1.5A2.66,2.66,0,0,1,75.4,124.27Zm-3-6.41,3,3.6,2.48-1.4-1.52-4.44.52-.61a8.56,8.56,0,0,0,1.56-2.63l.28-.74,4.63-.8,0-2.86-4.61-.9-.26-.75a8.91,8.91,0,0,0-1.5-2.67l-.51-.61,1.62-4.41-2.46-1.45-3.08,3.53-.78-.14a7.86,7.86,0,0,0-1.53-.15,8.8,8.8,0,0,0-1.54.11l-.78.13-3-3.6-2.48,1.4L64,102.91l-.52.6a8.81,8.81,0,0,0-1.56,2.64l-.28.74-4.62.8,0,2.86,4.61.9.26.75a8.73,8.73,0,0,0,1.51,2.67l.5.61-1.62,4.41,2.46,1.45,3.08-3.53.78.14a7.93,7.93,0,0,0,1.53.15,9.88,9.88,0,0,0,1.54-.11Zm-2.22-2.1h-.07a6.61,6.61,0,1,1,.07,0Zm0-2.77a3.73,3.73,0,1,0-2.56-6.39,3.67,3.67,0,0,0-1.12,2.62A3.72,3.72,0,0,0,70.16,113Z" transform="translate(-5 -5)"/><path class="cls-3" d="M115.63,66.78l6.87-5.87a2.85,2.85,0,0,0,.62-3.6l-3.45-6a2.86,2.86,0,0,0-3.43-1.26l-8.52,3a22.93,22.93,0,0,0-6.93-4L99.15,40.2a2.85,2.85,0,0,0-2.81-2.34H89.43a2.85,2.85,0,0,0-2.81,2.34L85,49.08a22.93,22.93,0,0,0-6.93,4l-8.52-3a2.86,2.86,0,0,0-3.43,1.26l-3.45,6a2.86,2.86,0,0,0,.61,3.6l6.88,5.87a23,23,0,0,0,0,8l-6.88,5.87a2.86,2.86,0,0,0-.61,3.6l3.45,6a2.85,2.85,0,0,0,3.43,1.27l8.52-3a22.9,22.9,0,0,0,6.93,4l1.64,8.89a2.86,2.86,0,0,0,2.81,2.34h6.91a2.86,2.86,0,0,0,2.81-2.34l1.64-8.89a22.9,22.9,0,0,0,6.93-4l8.52,3a2.85,2.85,0,0,0,3.43-1.27l3.45-6a2.85,2.85,0,0,0-.62-3.6l-6.87-5.87a23,23,0,0,0,0-8Zm-11.2,4A11.55,11.55,0,1,1,92.88,59.24,11.55,11.55,0,0,1,104.43,70.78Z" transform="translate(-5 -5)"/><path class="cls-4" d="M92.87,88.19h-.41l.07-2.78h.35a15.87,15.87,0,0,0,2.18-.16l.4,2.74A17.17,17.17,0,0,1,92.87,88.19Zm-3.4-.33A16.84,16.84,0,0,1,86.58,87l1-2.58a14.67,14.67,0,0,0,2.43.7Zm8.92-.56-.87-2.63a14.94,14.94,0,0,0,2.32-1l1.32,2.44A17,17,0,0,1,98.39,87.3ZM83.88,85.68a17,17,0,0,1-2.43-1.78l1.82-2.09a14.86,14.86,0,0,0,2,1.5Zm19.79-1.24L102,82.27a15.24,15.24,0,0,0,1.85-1.74l2.07,1.85A17.15,17.15,0,0,1,103.67,84.44Zm-24.31-2.7a16.87,16.87,0,0,1-1.69-2.5l2.42-1.35A14.88,14.88,0,0,0,81.51,80ZM107.67,80l-2.35-1.47a14.4,14.4,0,0,0,1.14-2.25l2.58,1A17.8,17.8,0,0,1,107.67,80ZM76.44,76.49a17.11,17.11,0,0,1-.74-2.92l2.74-.44a13.74,13.74,0,0,0,.62,2.45Zm33.48-2.08-2.72-.58a15.11,15.11,0,0,0,.31-2.51l2.77.1A17.69,17.69,0,0,1,109.92,74.41ZM78.25,70.6l-2.77,0a17.51,17.51,0,0,1,.29-3l2.73.5A15.26,15.26,0,0,0,78.25,70.6Zm29.13-1.81a13.81,13.81,0,0,0-.56-2.47l2.65-.85a17.58,17.58,0,0,1,.66,2.94Zm-28.2-3.14-2.6-1A17.39,17.39,0,0,1,77.88,62l2.39,1.41A14.12,14.12,0,0,0,79.18,65.65ZM105.85,64a15.88,15.88,0,0,0-1.37-2.14l2.2-1.69a17.24,17.24,0,0,1,1.62,2.53ZM81.74,61.3l-2.12-1.8a17.15,17.15,0,0,1,2.15-2.11l1.77,2.13A14.42,14.42,0,0,0,81.74,61.3Zm21-1.31a14.88,14.88,0,0,0-2-1.54l1.49-2.34a17,17,0,0,1,2.39,1.83ZM85.62,58.08l-1.38-2.41A17.34,17.34,0,0,1,87,54.4l1,2.61A14.58,14.58,0,0,0,85.62,58.08Zm12.9-.81a14.65,14.65,0,0,0-2.41-.76l.6-2.71a17.2,17.2,0,0,1,2.88.91Zm-8.16-.9-.47-2.74a17.59,17.59,0,0,1,3.84-.24l-.13,2.78A14.63,14.63,0,0,0,90.36,56.37Z" transform="translate(-5 -5)"/><path class="cls-4" d="M71.76,90.71l-2.23.79a2.85,2.85,0,0,1-3.43-1.27l-3.45-6a2.86,2.86,0,0,1,.61-3.6l1.8-1.53A29.15,29.15,0,0,0,71.76,90.71Z" transform="translate(-5 -5)"/><path class="cls-4" d="M92.88,99.82a29,29,0,0,0,6.7-.78l-.43,2.33a2.86,2.86,0,0,1-2.81,2.34H89.43a2.86,2.86,0,0,1-2.81-2.34L86.19,99A29,29,0,0,0,92.88,99.82Z" transform="translate(-5 -5)"/><path class="cls-4" d="M120.71,79.12l1.79,1.53a2.85,2.85,0,0,1,.62,3.6l-3.45,6a2.85,2.85,0,0,1-3.43,1.27L114,90.71A29.15,29.15,0,0,0,120.71,79.12Z" transform="translate(-5 -5)"/><path class="cls-4" d="M65.06,62.45l-1.8-1.54a2.86,2.86,0,0,1-.61-3.6l3.45-6a2.86,2.86,0,0,1,3.43-1.26l2.23.79A29.08,29.08,0,0,0,65.06,62.45Z" transform="translate(-5 -5)"/><path class="cls-4" d="M114,50.86l2.23-.79a2.86,2.86,0,0,1,3.43,1.26l3.45,6a2.85,2.85,0,0,1-.62,3.6l-1.79,1.54A29.08,29.08,0,0,0,114,50.86Z" transform="translate(-5 -5)"/><path class="cls-4" d="M92.88,41.75a29.51,29.51,0,0,0-6.69.77l.43-2.32a2.85,2.85,0,0,1,2.81-2.34h6.91a2.85,2.85,0,0,1,2.81,2.34l.43,2.32A29.53,29.53,0,0,0,92.88,41.75Z" transform="translate(-5 -5)"/><path class="cls-2" d="M96.34,105.09H89.43a4.24,4.24,0,0,1-4.17-3.47L83.75,93.5a24.55,24.55,0,0,1-6-3.45L70,92.81a4.25,4.25,0,0,1-5.09-1.88l-3.46-6a4.25,4.25,0,0,1,.92-5.35l6.29-5.37a23.93,23.93,0,0,1,0-6.9L62.36,62a4.26,4.26,0,0,1-.92-5.35l3.46-6A4.22,4.22,0,0,1,70,48.76l7.79,2.76a24.27,24.27,0,0,1,6-3.46l1.51-8.12a4.24,4.24,0,0,1,4.17-3.47h6.91a4.24,4.24,0,0,1,4.17,3.47L102,48.06a24.27,24.27,0,0,1,6,3.46l7.79-2.76a4.22,4.22,0,0,1,5.09,1.88l3.46,6a4.26,4.26,0,0,1-.92,5.35l-6.29,5.36a23.93,23.93,0,0,1,0,6.9l6.29,5.37a4.25,4.25,0,0,1,.92,5.35l-3.46,6a4.25,4.25,0,0,1-5.09,1.88L108,90.05a24.55,24.55,0,0,1-6,3.45l-1.51,8.12A4.24,4.24,0,0,1,96.34,105.09Zm-18-18.18.6.51a21.65,21.65,0,0,0,6.51,3.76l.75.27L88,101.12a1.47,1.47,0,0,0,1.44,1.2h6.91a1.47,1.47,0,0,0,1.44-1.2l1.79-9.67.75-.27a21.65,21.65,0,0,0,6.51-3.76l.6-.51,9.28,3.28a1.47,1.47,0,0,0,1.76-.65l3.45-6a1.46,1.46,0,0,0-.32-1.85l-7.47-6.39.13-.78a21.59,21.59,0,0,0,0-7.52l-.13-.78,7.47-6.38a1.47,1.47,0,0,0,.32-1.86l-3.45-6a1.48,1.48,0,0,0-1.76-.65l-9.28,3.29-.6-.51a21.68,21.68,0,0,0-6.51-3.77l-.75-.27-1.79-9.66a1.46,1.46,0,0,0-1.44-1.2H89.43A1.46,1.46,0,0,0,88,40.45L86.2,50.11l-.75.27a21.68,21.68,0,0,0-6.51,3.77l-.6.51-9.28-3.29A1.48,1.48,0,0,0,67.3,52l-3.45,6a1.47,1.47,0,0,0,.32,1.86l7.47,6.38-.13.78a21.59,21.59,0,0,0,0,7.52l.13.78-7.47,6.39a1.46,1.46,0,0,0-.32,1.85l3.45,6a1.47,1.47,0,0,0,1.76.65Zm14.54-3.19a12.94,12.94,0,1,1,12.94-12.94A13,13,0,0,1,92.88,83.72Zm0-23.1A10.16,10.16,0,1,0,103,70.78,10.17,10.17,0,0,0,92.88,60.62Z" transform="translate(-5 -5)"/><rect class="cls-3" x="23.3" y="69.31" width="39.4" height="29.39" rx="14.7"/><path class="cls-4" d="M64.6,74.31H31.4a3.1,3.1,0,0,0-3.1,3.1v3.76a3.1,3.1,0,0,1,3.1-3.1H64.6a3.1,3.1,0,0,1,3.1,3.1V77.41A3.1,3.1,0,0,0,64.6,74.31Z" transform="translate(-5 -5)"/><path class="cls-4" d="M32.11,101H63.9a1.25,1.25,0,0,0,1.24-1.24V95a2.7,2.7,0,0,1-2.7,2.69H33.56A2.69,2.69,0,0,1,30.87,95v4.72A1.24,1.24,0,0,0,32.11,101Z" transform="translate(-5 -5)"/><path class="cls-2" d="M64.23,105.09H31.77a4.85,4.85,0,0,1-4.85-4.85V77.78a4.85,4.85,0,0,1,4.85-4.85H64.23a4.86,4.86,0,0,1,4.86,4.85v22.46A4.86,4.86,0,0,1,64.23,105.09ZM31.77,75.7a2.09,2.09,0,0,0-2.08,2.08v22.46a2.09,2.09,0,0,0,2.08,2.08H64.23a2.08,2.08,0,0,0,2.08-2.08V77.78a2.08,2.08,0,0,0-2.08-2.08Z" transform="translate(-5 -5)"/><path class="cls-2" d="M64.23,90.4H31.77a4.86,4.86,0,0,1-4.85-4.86V77.78a4.85,4.85,0,0,1,4.85-4.85H64.23a4.86,4.86,0,0,1,4.86,4.85v7.76A4.87,4.87,0,0,1,64.23,90.4ZM31.77,75.7a2.09,2.09,0,0,0-2.08,2.08v7.76a2.08,2.08,0,0,0,2.08,2.08H64.23a2.08,2.08,0,0,0,2.08-2.08V77.78a2.08,2.08,0,0,0-2.08-2.08Z" transform="translate(-5 -5)"/><path class="cls-3" d="M57.59,74.31h-5V70.47a.62.62,0,0,0-.62-.62H44a.62.62,0,0,0-.62.62v3.84h-5V70.47A5.59,5.59,0,0,1,44,64.89h8a5.58,5.58,0,0,1,5.58,5.58Z" transform="translate(-5 -5)"/><path class="cls-4" d="M52,64.89H44a5.59,5.59,0,0,0-5.58,5.58v2.17A5.59,5.59,0,0,1,44,67.06h8a5.58,5.58,0,0,1,5.58,5.58V70.47A5.58,5.58,0,0,0,52,64.89Z" transform="translate(-5 -5)"/><path class="cls-2" d="M59,75.7H51.25V71.24H44.76V75.7H37V70.47a7,7,0,0,1,7-7h8a7,7,0,0,1,7,7Zm-5-2.77h2.19V70.47A4.2,4.2,0,0,0,52,66.28H44a4.2,4.2,0,0,0-4.19,4.19v2.46H42V70.47a2,2,0,0,1,2-2h8a2,2,0,0,1,2,2Z" transform="translate(-5 -5)"/><circle class="cls-2" cx="58.85" cy="80.1" r="1.24"/><circle class="cls-2" cx="27.16" cy="80.1" r="1.24"/><path class="cls-5" d="M50.59,92.76H45.41a3,3,0,0,1-3-3h0a3,3,0,0,1,3-3h5.18a3,3,0,0,1,3,3h0A3,3,0,0,1,50.59,92.76Z" transform="translate(-5 -5)"/><path class="cls-4" d="M50.59,86.78H45.41a3,3,0,0,0-3,3h0a3,3,0,0,0,.29,1.28,3,3,0,0,1,2.7-1.71h5.18a3,3,0,0,1,2.71,1.71,3,3,0,0,0,.28-1.28h0A3,3,0,0,0,50.59,86.78Z" transform="translate(-5 -5)"/><path class="cls-2" d="M50.68,94.15H45.32A4.3,4.3,0,0,1,41,89.86v-.18a4.3,4.3,0,0,1,4.29-4.29h5.36A4.29,4.29,0,0,1,55,89.68v.18A4.29,4.29,0,0,1,50.68,94.15Zm-5.36-6a1.51,1.51,0,0,0-1.51,1.51v.18a1.51,1.51,0,0,0,1.51,1.51h5.36a1.51,1.51,0,0,0,1.52-1.51v-.18a1.51,1.51,0,0,0-1.52-1.51Z" transform="translate(-5 -5)"/></svg>