<svg id="Capa_1" data-name="Capa 1" xmlns="http://www.w3.org/2000/svg" xmlns:xlink="http://www.w3.org/1999/xlink" viewBox="0 0 140 140"><defs><style>.cls-1{fill:none;}.cls-2{fill:#ecf0f8;}.cls-3{clip-path:url(#clip-path);}.cls-4{fill:#ccc95f;}.cls-5{fill:#e8970b;}.cls-6{fill:#dcedfd;}.cls-7{fill:#7c6b7b;}.cls-8{fill:#282027;}.cls-9{fill:#3d333b;}.cls-10{fill:#fff;}.cls-11{fill:#5d80b1;}.cls-12{fill:#446499;}.cls-13{fill:#e0db71;}.cls-14{fill:#b5af46;}.cls-15{fill:#b3ae55;}.cls-16{fill:#9e9740;}.cls-17{fill:#769ac7;}.cls-18{fill:#dbd1d3;}.cls-19{fill:#4f464d;}.cls-20{fill:#e6434f;}.cls-21{fill:#938493;}.cls-22{fill:#ac9eac;}.cls-23{fill:#332a31;}.cls-24{fill:#60595e;}.cls-25{fill:#776d76;}.cls-26{fill:#324b82;}</style><clipPath id="clip-path" transform="translate(-5 -5)"><circle class="cls-1" cx="75" cy="75" r="70"/></clipPath></defs><title>MQ-003</title><circle class="cls-2" cx="70" cy="70" r="70"/><g class="cls-3"><path class="cls-4" d="M65.65,89.82l2.49-1.44a1.43,1.43,0,0,0,.6-1.14V86c0-.44-.27-.64-.6-.45L65.65,87a1.42,1.42,0,0,0-.59,1.14v1.23C65.06,89.8,65.32,90,65.65,89.82Z" transform="translate(-5 -5)"/><path class="cls-4" d="M68.94,85.76s-.34-.28-.5-.27.2.53.2.53Z" transform="translate(-5 -5)"/><path class="cls-5" d="M65.76,90.08s-.44-.07-.56-.28a.61.61,0,0,1,0-.44S65.78,89.64,65.76,90.08Z" transform="translate(-5 -5)"/><path class="cls-6" d="M66,90l2.48-1.44a1.42,1.42,0,0,0,.6-1.13V86.2c0-.43-.27-.64-.6-.45L66,87.19a1.43,1.43,0,0,0-.6,1.14v1.23C65.43,90,65.7,90.2,66,90Z" transform="translate(-5 -5)"/><path class="cls-7" d="M44.77,110.13l7.33-4.29a3.69,3.69,0,0,0-4.42-1.63,21,21,0,0,0-4.91,2Z" transform="translate(-5 -5)"/><path class="cls-8" d="M47.71,109c0,2.93,1.78,6.33,4,7.59s4-.08,4-3-1.79-6.32-4-7.59S47.7,106.08,47.71,109Z" transform="translate(-5 -5)"/><polygon class="cls-8" points="49.17 111.86 46.6 113.35 41.77 102.15 44.45 100.62 49.17 111.86"/><path class="cls-9" d="M45.13,110.5c0,2.92,1.78,6.32,4,7.59s4-.09,4-3-1.79-6.33-4-7.59S45.12,107.57,45.13,110.5Z" transform="translate(-5 -5)"/><path class="cls-10" d="M46.25,111.14a6.85,6.85,0,0,0,2.86,5.46c1.58.91,2.85-.06,2.85-2.17A6.83,6.83,0,0,0,49.1,109C47.52,108.07,46.24,109,46.25,111.14Z" transform="translate(-5 -5)"/><path class="cls-9" d="M47.5,112A3.47,3.47,0,0,0,49,114.73c.81.47,1.46,0,1.46-1.1A3.5,3.5,0,0,0,49,110.84C48.15,110.38,47.5,110.87,47.5,112Z" transform="translate(-5 -5)"/><path class="cls-7" d="M47.74,112.09A2.93,2.93,0,0,0,49,114.41c.67.38,1.22,0,1.21-.92A2.89,2.89,0,0,0,49,111.17C48.28,110.78,47.74,111.19,47.74,112.09Z" transform="translate(-5 -5)"/><path class="cls-7" d="M14.31,92.56l7.33-4.3a3.69,3.69,0,0,0-4.42-1.63,20.67,20.67,0,0,0-4.92,2Z" transform="translate(-5 -5)"/><path class="cls-4" d="M8.22,77.2S17,70.1,24,68.53c2.9-.65,6,.78,8.45,1L35,72.05,16.31,83.56,8.64,79.48C7.93,79.06,7.51,77.62,8.22,77.2Z" transform="translate(-5 -5)"/><path class="cls-11" d="M67,90.88a30.65,30.65,0,0,1-5.78,4.84c-7.94,5.57-13.57,5.16-13.57,5.16l-4.4-7.74C47.88,91,54.8,88,57.75,87.39S64.6,89.15,67,90.88Z" transform="translate(-5 -5)"/><path class="cls-12" d="M60.3,80.37l7.37,8.72s.52.37-.64,1.79c-2.43-1.73-6.33-4-9.28-3.49S47.88,91,43.28,93.14L42.08,91Z" transform="translate(-5 -5)"/><path class="cls-13" d="M60.3,80.37s-.8,1.18-5.61,4.52C50.21,88,42.08,91,42.08,91a110.08,110.08,0,0,0-10.43-7C27,81.5,19,78.14,19,78.14l13.43-8.62S36,66,42.06,69.2c2.28,1.2,6.41,3.73,12.2,7.25C56.42,77.77,58.59,79.2,60.3,80.37Z" transform="translate(-5 -5)"/><path class="cls-14" d="M59.74,81.36s-4-2.46-9.78-5.73S36.73,68,36.73,68l-.69.22s3.1,1.86,6,3.47C44.42,73,59.47,81.84,59.47,81.84Z" transform="translate(-5 -5)"/><path class="cls-14" d="M45.48,89.67s-4-2.45-9.78-5.73-13.22-7.59-13.22-7.59l-.7.22s3.1,1.87,6,3.48c2.37,1.31,17.41,10.11,17.41,10.11Z" transform="translate(-5 -5)"/><path class="cls-13" d="M20.87,77.19,17,77.87,13.07,80s7.65-1,8.42-1.32S20.87,77.19,20.87,77.19Z" transform="translate(-5 -5)"/><path class="cls-8" d="M17.24,91.43c0,2.92,1.79,6.32,4,7.59s4-.09,4-3-1.79-6.33-4-7.59S17.24,88.5,17.24,91.43Z" transform="translate(-5 -5)"/><polygon class="cls-8" points="18.71 94.28 16.13 95.78 11.31 84.57 13.98 83.05 18.71 94.28"/><path class="cls-9" d="M14.66,92.92c0,2.93,1.79,6.32,4,7.59s4-.08,4-3-1.79-6.32-4-7.59S14.66,90,14.66,92.92Z" transform="translate(-5 -5)"/><path class="cls-10" d="M15.78,93.56A6.86,6.86,0,0,0,18.64,99c1.58.91,2.86-.06,2.86-2.16a6.83,6.83,0,0,0-2.86-5.46C17.06,90.49,15.78,91.46,15.78,93.56Z" transform="translate(-5 -5)"/><path class="cls-9" d="M17,94.37a3.5,3.5,0,0,0,1.47,2.78c.8.47,1.46,0,1.46-1.1a3.54,3.54,0,0,0-1.47-2.79C17.69,92.8,17,93.29,17,94.37Z" transform="translate(-5 -5)"/><path class="cls-7" d="M17.28,94.51a2.9,2.9,0,0,0,1.22,2.32c.67.39,1.21,0,1.21-.92a2.87,2.87,0,0,0-1.22-2.32C17.82,93.2,17.28,93.61,17.28,94.51Z" transform="translate(-5 -5)"/><path class="cls-15" d="M8.22,77.2c1.73.32,3.3,2.85,6.43,2.27.87-.16,3.55-1.18,5.74-1s3.63,1,5.74,2.28c1.66,1,7.6,4.34,12.14,7.26,2.54,1.64,4.3,2.61,5,3.7.46.76,2.08,4.55,3.66,7.5a8.15,8.15,0,0,0,1.17,1.62l28.82-5.33a13.65,13.65,0,0,1,2.66,4.72c.4,1.15,1.6,4,1,6.66a10.41,10.41,0,0,1-5.24,6.62c-10.53,6.1-16.47,4.7-20.85,2.26,0-3.88-2.38-8.38-5.29-10s-5.26.09-5.28,4L23.48,97.84a23,23,0,0,0-1.24-5.29c-1.14-1.94-4-4.63-5.27-4.5-4.06.4-2.38,4.66-3.08,4.26l-1.55-.9C9.15,89.58,7.53,85.94,7,83.64,6.72,82.37,6.81,78.13,8.22,77.2Z" transform="translate(-5 -5)"/><path class="cls-13" d="M13.42,91.36c0-4.3,2.64-6.28,5.88-4.41a11.09,11.09,0,0,1,3.75,4L24.75,92c3.07,2,16.29,9.53,21.17,12.3a3.8,3.8,0,0,1,3.79.33c3.25,1.87,5.88,6.88,5.9,11.21l-.45-.26-.65-.37s-.66-.29-.66-.33c0-3.59-2-7.51-4.66-9.06a4.12,4.12,0,0,0-1.59-.56l.13.07-1.71.36c-.79.65-1.24,2-1.23,3.79v.11l-1-.55a6.58,6.58,0,0,1,1-3.66L31.67,98c-1.8-1-7-3.4-7-3.4a11.74,11.74,0,0,1,.54,3.55l-.45-.26-.65-.37s-.66-.29-.66-.34a11.78,11.78,0,0,0-.86-4.26l-.21-.11-1.65-2.41-2.23-2.12c-.36-.23.33.12,1.6.85a7.22,7.22,0,0,0-1.31-1c-2.69-1.55-4.68,0-4.68,3.61,0,0,.28.12.28.16Z" transform="translate(-5 -5)"/><path class="cls-16" d="M49.19,105.69c2.91,1.67,5.27,6.17,5.29,10l-.41-.23-.58-.34v-.11c0-3.21-2-6.94-4.36-8.33s-4.37.09-4.36,3.3v.1l-.86-.49C43.93,105.78,46.28,104,49.19,105.69Z" transform="translate(-5 -5)"/><path class="cls-13" d="M30.68,70.61a8.24,8.24,0,0,0-5.89-1.11,22.82,22.82,0,0,0-6.7,3.24L23.6,75Z" transform="translate(-5 -5)"/><path class="cls-16" d="M18.73,88.11c2.9,1.68,5.27,6.17,5.28,10l-.4-.23L23,97.59v-.11c0-3.21-2-6.94-4.37-8.33s-4.36.09-4.36,3.3c0,0,0,.07,0,.11l-.86-.5C13.47,88.21,15.82,86.44,18.73,88.11Z" transform="translate(-5 -5)"/><path class="cls-4" d="M67.67,89.09S71.29,91.64,76.3,95c2.47,1.66,3.34,6.32-2.47,10.12-6.79,4.44-11.94,4-16.25,1.45-4.64-2.7-9.9-5.69-9.9-5.69s3.57,0,10.68-4.24A40.31,40.31,0,0,0,67.67,89.09Z" transform="translate(-5 -5)"/><path class="cls-13" d="M64.66,107.17,52,100l-1.63.66S61,107.35,64.66,107.17Z" transform="translate(-5 -5)"/><path class="cls-13" d="M67.09,90.13s6,3.85,8.32,5.77a4.2,4.2,0,0,1,1.16,4.7l-13.2-7.79Z" transform="translate(-5 -5)"/><path class="cls-9" d="M44.51,100.35a.67.67,0,0,0,1-.84C44.27,96.7,42,91.61,41,91c-1.26-.82-5.67-3.45-11-6.63C26,82,22.5,80,20.84,80.41a21.52,21.52,0,0,0-3.69,2.3,1.17,1.17,0,0,0,.1,2Z" transform="translate(-5 -5)"/><path class="cls-17" d="M37,67.87s-5.39,2.95-7.82,4.55c-3.61,2.37-8.45,5-8.45,5l-5.49,1.42c1.49-.91,0,0,2.89-1.62,4.12-2.32,8.62-5.18,9.35-5.63,1-.63,3-1.65,4-2.18A14.47,14.47,0,0,1,37,67.87Z" transform="translate(-5 -5)"/><path class="cls-10" d="M67,111.83a2.91,2.91,0,0,0-2.83-1.78,10.05,10.05,0,0,1-2.58-.19,10.58,10.58,0,0,1-4.06-1.38c-1.07-.64-1.17.45-1.05.86a4.83,4.83,0,0,0,3.23,3.21A10.24,10.24,0,0,0,67,111.83Z" transform="translate(-5 -5)"/><path class="cls-9" d="M68.62,108.09c-1,.21-2,.45-2.72.6l-.18-.2a27,27,0,0,0,8.11-3.37A11.68,11.68,0,0,0,77,101.94l.12.43a13.7,13.7,0,0,1-1.22,1.78C74.58,105.84,70.28,107.74,68.62,108.09Z" transform="translate(-5 -5)"/><path class="cls-9" d="M68.93,109l-2.33.52-.4-.46c.74-.16,1.74-.38,2.7-.63a24,24,0,0,0,6.21-3.05,6.9,6.9,0,0,0,2.15-2.55l.18.67A12.23,12.23,0,0,1,76.23,105C74.78,106.64,70.58,108.62,68.93,109Z" transform="translate(-5 -5)"/><path class="cls-9" d="M75.78,107.26a6.57,6.57,0,0,0,2-2.25,2.31,2.31,0,0,1-.77,1.74,14.93,14.93,0,0,1-2.79,2,41.57,41.57,0,0,1-4.65,2.2,2,2,0,0,1-1.77-.2c.56-.12,1.18-.27,1.77-.43A24,24,0,0,0,75.78,107.26Z" transform="translate(-5 -5)"/><path class="cls-9" d="M75.42,106.23a8,8,0,0,0,2.14-2.3l.14.48a.17.17,0,0,0,0,.07,14.5,14.5,0,0,1-1.12,1.58c-1.34,1.7-5.64,3.59-7.29,3.94l-1.88.41,0,0-.49-.56c.68-.15,1.51-.34,2.31-.54A24.7,24.7,0,0,0,75.42,106.23Z" transform="translate(-5 -5)"/><path class="cls-7" d="M76.59,106.06a14.5,14.5,0,0,0,1.12-1.58,3.07,3.07,0,0,1,.07.53,6.57,6.57,0,0,1-2,2.25,24,24,0,0,1-6.21,3c-.59.16-1.21.31-1.77.43a1.7,1.7,0,0,1-.38-.33L69.3,110C71,109.65,75.25,107.76,76.59,106.06Z" transform="translate(-5 -5)"/><path class="cls-7" d="M68.93,109c1.65-.35,5.85-2.33,7.3-3.93a12.23,12.23,0,0,0,1.21-1.57l.12.46a8,8,0,0,1-2.14,2.3,24.7,24.7,0,0,1-6.21,3.06c-.8.2-1.63.39-2.31.54l-.3-.34Z" transform="translate(-5 -5)"/><path class="cls-7" d="M75.11,105.35a24,24,0,0,1-6.21,3.05c-1,.25-2,.47-2.7.63l-.3-.34c.68-.15,1.72-.39,2.72-.6,1.66-.35,6-2.25,7.3-3.94a13.7,13.7,0,0,0,1.22-1.78l.12.43A6.9,6.9,0,0,1,75.11,105.35Z" transform="translate(-5 -5)"/><path class="cls-10" d="M78.5,97.72s.12,1.5.12,3.14a12.09,12.09,0,0,0,.52,2.88,14.55,14.55,0,0,0,.52-3.14A5.86,5.86,0,0,0,78.5,97.72Z" transform="translate(-5 -5)"/><path class="cls-9" d="M78.51,109.71s0-3-1.88-1.7a32,32,0,0,1-4.41,2.66c-1.39.66-2.39,1.14-2.79,1.86a8.58,8.58,0,0,0-.41,2.68s1.32-.07,5.81-2.61C78.2,110.7,78.51,109.71,78.51,109.71Z" transform="translate(-5 -5)"/><path class="cls-10" d="M77.1,108.47v1.8s-1.38,1-2.49,1.7c-.72.47-3.49,1.73-3.49,1.73V112s2-.88,3.49-1.77A18.25,18.25,0,0,0,77.1,108.47Z" transform="translate(-5 -5)"/><path class="cls-16" d="M80.72,105.72a7.66,7.66,0,0,1-1,4.48,18.92,18.92,0,0,1-10.38,6.91c-6.5,1.87-10.65,1.28-13.06.19s-2.69-1-2.75-2.13,1-.36,1-.36,1.07,1.78,6.12,2.09a27.7,27.7,0,0,0,9-1.18,25.76,25.76,0,0,0,7.52-4.11A8.35,8.35,0,0,0,80.72,105.72Z" transform="translate(-5 -5)"/><path class="cls-9" d="M65.36,114.29a.38.38,0,0,1,.32.55,3.62,3.62,0,0,1-.65.89c-.84.77-4.64.82-5.07.43a1,1,0,0,1,.88-1.61C62.24,114.6,64.16,114.27,65.36,114.29Z" transform="translate(-5 -5)"/><path class="cls-9" d="M80.47,103.22s-.28,1.3-.47,1.8.72.7.72.7A13.46,13.46,0,0,0,80.47,103.22Z" transform="translate(-5 -5)"/><path class="cls-10" d="M72.35,107.74c.11.35.77.38,1.47.06s1.18-.87,1.07-1.22-.78-.38-1.48-.06S72.24,107.38,72.35,107.74Z" transform="translate(-5 -5)"/><path class="cls-9" d="M68.41,89.61s-.45,1-3,3-7.72,5.64-11.19,7-5.69,2.27-6.57,1.22-5.31-10-5.31-10l.51-.21s4.72,9.19,5.3,9.69,5-1.16,12.78-6.24c3-1.93,6.71-5,6.71-5Z" transform="translate(-5 -5)"/><path class="cls-9" d="M60.3,80.37l.35.42a39.66,39.66,0,0,1-6.2,4.68C51,87.54,42.7,91.31,42.7,91.31l-.33-.46a93.85,93.85,0,0,0,11.84-6A59.92,59.92,0,0,0,60.3,80.37Z" transform="translate(-5 -5)"/><polygon class="cls-16" points="18.37 91.6 39.3 103.67 39.3 104.85 38.99 104.67 18.11 92.63 18.37 91.6"/><path class="cls-12" d="M33.14,86.91V93l8.93,5.16s0-2.3,0-3.24a5.41,5.41,0,0,0-.55-2.1,5.29,5.29,0,0,0-1.87-2C37.26,89.36,33.14,86.91,33.14,86.91Z" transform="translate(-5 -5)"/><path class="cls-12" d="M32,86.37v6.1l-9.44-5.55s0-2.31.11-3l.44-2.44Z" transform="translate(-5 -5)"/><path class="cls-12" d="M22.23,81.22s-.35,1.72-.45,2.33-.14,2.9-.14,2.9S19.5,85.16,19,84.9s-.89-1,.41-2A30.29,30.29,0,0,1,22.23,81.22Z" transform="translate(-5 -5)"/><path class="cls-9" d="M7.34,79.08l.12.08a1.23,1.23,0,0,1,.57,1v1.38a19.34,19.34,0,0,0,.2,2.5l-1.29-.8a5.2,5.2,0,0,1-.36-2.92A1.9,1.9,0,0,1,7.34,79.08Z" transform="translate(-5 -5)"/><path class="cls-13" d="M14.66,87.68a45.79,45.79,0,0,1-6.77-3.83,10.32,10.32,0,0,1-1.16-1.14s-.35.52.9,2.23a29.24,29.24,0,0,0,6.15,4.2C14.4,87.69,14.66,87.68,14.66,87.68Z" transform="translate(-5 -5)"/><path class="cls-4" d="M42.27,103.07l2.49-1.44a1.42,1.42,0,0,0,.59-1.14V99.26c0-.43-.26-.64-.59-.45l-2.49,1.44a1.42,1.42,0,0,0-.59,1.14v1.23C41.68,103.05,41.94,103.26,42.27,103.07Z" transform="translate(-5 -5)"/><path class="cls-4" d="M45.56,99s-.34-.28-.5-.27.2.53.2.53Z" transform="translate(-5 -5)"/><path class="cls-4" d="M42.38,103.33s-.44-.07-.56-.28a.56.56,0,0,1,0-.44S42.4,102.89,42.38,103.33Z" transform="translate(-5 -5)"/><path class="cls-6" d="M42.65,103.26l2.48-1.44a1.42,1.42,0,0,0,.6-1.13V99.45c0-.43-.27-.64-.6-.45l-2.48,1.44a1.43,1.43,0,0,0-.6,1.14v1.23C42.05,103.25,42.32,103.45,42.65,103.26Z" transform="translate(-5 -5)"/><path class="cls-18" d="M105,108.13l-.23-.39s.6-.35.95-.59.26-.47.15-1-.65-2.72-.79-3.13c-.29-.84.3-1.09,1.29-1.5l.17.42c-1.14.48-1.16.57-1,.94s.69,2.69.8,3.17c.06.27.24,1.08-.34,1.47C105.63,107.77,105,108.13,105,108.13Z" transform="translate(-5 -5)"/><path class="cls-8" d="M108,102.11l2-1.16c.48-.27.41-.76-.14-1.08h0A2,2,0,0,0,108,99.8L106,101c-.47.27-.41.76.14,1.08h0A2.08,2.08,0,0,0,108,102.11Z" transform="translate(-5 -5)"/><polygon class="cls-8" points="100.69 95.95 100.69 96.45 105.35 95.45 105.35 94.96 100.69 95.95"/><path class="cls-19" d="M108,101.61l2-1.16c.48-.28.41-.76-.14-1.08h0a2.08,2.08,0,0,0-1.86-.08l-2,1.16c-.47.28-.41.76.14,1.08h0A2,2,0,0,0,108,101.61Z" transform="translate(-5 -5)"/><polygon class="cls-18" points="86.45 105.76 86 105.41 86 85.11 86.45 85.6 86.45 105.76"/><path class="cls-18" d="M97.15,110.72,85.82,91.05l-.35.31L96.81,111C96.93,110.94,97,110.82,97.15,110.72Z" transform="translate(-5 -5)"/><path class="cls-18" d="M84,96.38c0,.17,0,.35,0,.52l15.27,8.91.22-.39Z" transform="translate(-5 -5)"/><path class="cls-18" d="M85.68,105l12-8.14-.25-.38-12,8.14C85.51,104.71,85.59,104.84,85.68,105Z" transform="translate(-5 -5)"/><path class="cls-8" d="M94.54,111.78a6.7,6.7,0,0,1-2.45-.5c-4.49-1.81-8.27-8.09-8.42-14h0c-.09-3.31,1-6,2.89-7.31a5.49,5.49,0,0,1,5.33-.39c4.5,1.81,8.27,8.09,8.43,14,.08,3.31-1,6-2.9,7.31A5,5,0,0,1,94.54,111.78Zm-10-14.53c.14,5.59,3.67,11.5,7.85,13.19a4.58,4.58,0,0,0,4.47-.29c1.67-1.16,2.59-3.55,2.51-6.54-.14-5.59-3.67-11.5-7.85-13.19a4.6,4.6,0,0,0-4.48.29c-1.67,1.16-2.58,3.54-2.5,6.54Z" transform="translate(-5 -5)"/><path class="cls-9" d="M94.21,112a6.7,6.7,0,0,1-2.45-.5c-4.49-1.81-8.27-8.09-8.42-14h0c-.09-3.3,1-6,2.89-7.3a5.49,5.49,0,0,1,5.33-.39c4.49,1.81,8.27,8.09,8.42,14,.09,3.31-1,6-2.89,7.31A5,5,0,0,1,94.21,112Zm-10-14.53c.15,5.59,3.67,11.5,7.86,13.19a4.58,4.58,0,0,0,4.47-.29c1.67-1.16,2.58-3.55,2.51-6.54-.15-5.59-3.67-11.5-7.86-13.19a4.58,4.58,0,0,0-4.47.29c-1.67,1.16-2.58,3.54-2.51,6.54Z" transform="translate(-5 -5)"/><polygon class="cls-18" points="111.75 120.37 111.3 120.03 111.3 99.72 111.75 100.22 111.75 120.37"/><path class="cls-18" d="M122.45,125.33l-11.33-19.67-.34.31,11.33,19.68C122.23,125.55,122.34,125.44,122.45,125.33Z" transform="translate(-5 -5)"/><path class="cls-18" d="M109.31,111c0,.18,0,.35,0,.52l15.26,8.91.23-.39Z" transform="translate(-5 -5)"/><path class="cls-18" d="M111,119.57l12-8.14-.26-.37-12,8.14A3,3,0,0,0,111,119.57Z" transform="translate(-5 -5)"/><path class="cls-8" d="M119.91,126.39a6.5,6.5,0,0,1-2.45-.5c-4.49-1.81-8.27-8.09-8.42-14h0c-.09-3.31,1-6,2.89-7.31a5.51,5.51,0,0,1,5.33-.39c4.5,1.81,8.27,8.09,8.43,14,.08,3.3-1,6-2.9,7.31A5,5,0,0,1,119.91,126.39Zm-10-14.53c.14,5.59,3.66,11.5,7.85,13.19a4.58,4.58,0,0,0,4.47-.29c1.67-1.16,2.59-3.54,2.51-6.54-.15-5.58-3.67-11.5-7.86-13.18a4.56,4.56,0,0,0-4.47.28c-1.67,1.16-2.58,3.55-2.5,6.54Z" transform="translate(-5 -5)"/><path class="cls-9" d="M119.51,126.57a6.45,6.45,0,0,1-2.44-.5c-4.5-1.81-8.28-8.09-8.43-14h0c-.08-3.31,1-6,2.9-7.31a5.51,5.51,0,0,1,5.33-.39c4.49,1.81,8.27,8.09,8.42,14,.08,3.3-1,6-2.89,7.3A4.94,4.94,0,0,1,119.51,126.57Zm-10-14.53c.14,5.59,3.67,11.5,7.85,13.19a4.6,4.6,0,0,0,4.48-.29c1.67-1.16,2.58-3.54,2.5-6.54-.14-5.59-3.67-11.5-7.85-13.18a4.57,4.57,0,0,0-4.48.28c-1.67,1.16-2.58,3.55-2.5,6.54Z" transform="translate(-5 -5)"/><path class="cls-9" d="M104.22,107.28a2,2,0,0,0,.82,1.58c.46.26.83,0,.83-.63a2,2,0,0,0-.83-1.57C104.58,106.39,104.22,106.67,104.22,107.28Z" transform="translate(-5 -5)"/><polygon class="cls-9" points="100.25 104.09 100.6 103.89 99.5 101.61 99.2 101.8 100.25 104.09"/><path class="cls-19" d="M103.9,107.46a2,2,0,0,0,.83,1.58c.46.26.82,0,.82-.63a2,2,0,0,0-.82-1.57C104.27,106.58,103.9,106.86,103.9,107.46Z" transform="translate(-5 -5)"/><path class="cls-18" d="M104.51,107.89a.36.36,0,0,0,.15.28c.08,0,.15,0,.15-.11a.38.38,0,0,0-.15-.29C104.57,107.72,104.51,107.77,104.51,107.89Z" transform="translate(-5 -5)"/><path class="cls-20" d="M104.5,109l-13.65-7.88,9.68-7,.49,1-8.42,6.07,12,6.94,9.78-9.82v1.48l-9.09,9.11A.66.66,0,0,1,104.5,109Z" transform="translate(-5 -5)"/><polygon class="cls-20" points="99.16 103.66 93.1 82.36 94.04 82.36 100.11 103.65 99.16 103.66"/><polygon class="cls-20" points="95.89 90.11 95.66 89.07 109.19 90.85 109.42 91.88 95.89 90.11"/><polygon class="cls-20" points="112.14 110.81 110.98 110.49 107.44 84.65 108.49 84.26 112.14 110.81"/><path class="cls-9" d="M90.24,100.43a2.57,2.57,0,0,0,1.07,2c.59.33,1.07,0,1.07-.81a2.55,2.55,0,0,0-1.07-2C90.72,99.28,90.24,99.64,90.24,100.43Z" transform="translate(-5 -5)"/><path class="cls-9" d="M115.55,115a2.55,2.55,0,0,0,1.07,2c.58.34,1.06,0,1.06-.81a2.55,2.55,0,0,0-1.07-2C116,113.89,115.55,114.26,115.55,115Z" transform="translate(-5 -5)"/><path class="cls-9" d="M103.06,107.88a2,2,0,0,0,.83,1.57c.45.27.82,0,.82-.62a2,2,0,0,0-.82-1.57C103.43,107,103.06,107.27,103.06,107.88Z" transform="translate(-5 -5)"/><polygon class="cls-9" points="99.09 104.69 99.45 104.48 98.35 102.22 98.04 102.39 99.09 104.69"/><path class="cls-19" d="M102.75,108.06a2,2,0,0,0,.83,1.58c.45.26.82,0,.82-.63a2,2,0,0,0-.83-1.57C103.12,107.18,102.75,107.46,102.75,108.06Z" transform="translate(-5 -5)"/><path class="cls-18" d="M103.35,108.48a.36.36,0,0,0,.15.29c.09,0,.16,0,.16-.11a.36.36,0,0,0-.16-.29C103.42,108.32,103.35,108.37,103.35,108.48Z" transform="translate(-5 -5)"/><path class="cls-19" d="M94,85.34c.87.75,3.13,1.09,4.77,1.55a4,4,0,0,0,2.66-.1,2.66,2.66,0,0,0-.28-1.75c-1.26-2.41-3.5-4-5.24-2.82a11.87,11.87,0,0,0-2.44,2A1.43,1.43,0,0,0,94,85.34Z" transform="translate(-5 -5)"/><path class="cls-9" d="M93.53,86.13c1.16.94,2.89,1.1,5.52,1.74a2.4,2.4,0,0,0,2.15-.51,1.32,1.32,0,0,0,.25-.57,4,4,0,0,1-2.66.1c-1.64-.46-3.9-.8-4.77-1.55a1.43,1.43,0,0,1-.53-1.17C93,84.83,92.78,85.52,93.53,86.13Z" transform="translate(-5 -5)"/><path class="cls-19" d="M111.8,90l.63,3.06a1.25,1.25,0,0,0,1.27.19c.8-.24.63-.88.63-.88l-.41-3.24Z" transform="translate(-5 -5)"/><path class="cls-19" d="M118.42,81.83a1.07,1.07,0,0,0,.45.86c.25.15.45,0,.45-.34a1.07,1.07,0,0,0-.45-.86C118.62,81.34,118.41,81.5,118.42,81.83Z" transform="translate(-5 -5)"/><polygon class="cls-19" points="110.16 78.44 113.59 76.46 114.13 77.73 110.78 79.68 110.16 78.44"/><path class="cls-7" d="M115,83.8a1.11,1.11,0,0,0,.45.87c.25.14.46,0,.46-.35a1.08,1.08,0,0,0-.46-.86C115.21,83.31,115,83.47,115,83.8Z" transform="translate(-5 -5)"/><path class="cls-18" d="M115.21,83.92a.6.6,0,0,0,.25.48c.14.08.26,0,.26-.19a.62.62,0,0,0-.26-.49C115.32,83.64,115.21,83.73,115.21,83.92Z" transform="translate(-5 -5)"/><path class="cls-18" d="M115.64,84.41c-.08-.26-.22-.46-.3-.72-1.5,1-1.73,1.55-1.06,3.23.43,1.08-.19,1.52-1.34,2.2l-.22.13c-1,.62-2.28,1-2.71.36s-1.45-2.27-2.58-1.59c-.91.56-1.62,1-1.62,1l.35.59,1.63-1c.38-.23.91.22,1.65,1.37a1.44,1.44,0,0,0,1.31.65,4.76,4.76,0,0,0,2.32-.79l.22-.14c1.07-.63,2.29-1.36,1.62-3C114.43,85.46,114.54,85.15,115.64,84.41Z" transform="translate(-5 -5)"/><path class="cls-19" d="M105.76,89a1.08,1.08,0,0,0,.46.86c.25.15.45,0,.45-.34a1.11,1.11,0,0,0-.45-.87C106,88.46,105.76,88.61,105.76,89Z" transform="translate(-5 -5)"/><polygon class="cls-19" points="97.51 85.56 100.94 83.58 101.47 84.85 98.13 86.8 97.51 85.56"/><path class="cls-9" d="M102.36,90.92a1.07,1.07,0,0,0,.45.86c.25.15.46,0,.46-.34a1.08,1.08,0,0,0-.46-.86C102.56,90.43,102.36,90.59,102.36,90.92Z" transform="translate(-5 -5)"/><path class="cls-18" d="M100.62,114.31l-.19-.41s.84-.38,1.27-.61.44-.39.47-1.32c0-.58,0-1.11,0-1.5v-.55c0-.85.47-1.14,1.25-1.57l.22.4c-.79.44-1,.63-1,1.19a4.57,4.57,0,0,0,0,.53c0,.4,0,.93,0,1.51,0,.94-.13,1.41-.71,1.71S100.66,114.3,100.62,114.31Z" transform="translate(-5 -5)"/><path class="cls-8" d="M99.48,115.72l2-1.16c.48-.27.42-.76-.13-1.08h0a2.06,2.06,0,0,0-1.87-.07l-2,1.16c-.48.27-.42.76.13,1.08h0A2.1,2.1,0,0,0,99.48,115.72Z" transform="translate(-5 -5)"/><polygon class="cls-8" points="92.16 109.56 92.16 110.06 96.81 109.06 96.81 108.57 92.16 109.56"/><path class="cls-19" d="M99.48,115.22l2-1.16c.48-.28.42-.76-.13-1.08h0a2.1,2.1,0,0,0-1.87-.08l-2,1.16c-.48.28-.42.76.13,1.08h0A2.1,2.1,0,0,0,99.48,115.22Z" transform="translate(-5 -5)"/><path class="cls-6" d="M110.05,43.26a.27.27,0,0,0,.12,0A57.29,57.29,0,0,0,115.89,40c1.27-1,1.24-2.51,1.19-4.16,0-.32,0-.64,0-1a.27.27,0,0,0-.27-.28.28.28,0,0,0-.28.28c0,.33,0,.65,0,1,0,1.64.07,2.93-1,3.71a55.11,55.11,0,0,1-5.64,3.22.28.28,0,0,0-.12.37A.29.29,0,0,0,110.05,43.26Z" transform="translate(-5 -5)"/><path class="cls-21" d="M117.29,37l-1.93,1.12c-.46.26-.83,0-.83-.63V32a2,2,0,0,1,.83-1.58l1.93-1.12c.46-.26.83,0,.83.63v5.51A2,2,0,0,1,117.29,37Z" transform="translate(-5 -5)"/><polygon class="cls-21" points="110.28 33.47 109.8 33.16 109.96 32.83 110.46 33.07 110.28 33.47"/><polygon class="cls-21" points="112.71 24.19 113.3 24.51 113.03 24.8 112.56 24.5 112.71 24.19"/><path class="cls-22" d="M117.72,37.25l-1.94,1.12c-.45.26-.82,0-.82-.63V32.23a2,2,0,0,1,.82-1.58l1.94-1.12c.45-.26.83,0,.83.62v5.52A2,2,0,0,1,117.72,37.25Z" transform="translate(-5 -5)"/><polygon class="cls-9" points="66.3 27.02 120.55 58.62 120.55 45.48 109.27 36.98 105.3 24.19 66.3 1.67 66.3 27.02"/><polygon class="cls-19" points="78.78 39.53 39.78 17.01 66.35 1.67 105.35 24.19 78.78 39.53"/><polygon class="cls-23" points="39.78 42.35 43.5 44.46 45 38.82 54.65 43.98 55.75 51.66 76.66 63.83 77.56 59.4 87.81 66.02 88.34 70.64 94.03 73.95 94.03 60.82 82.76 52.32 78.78 39.53 39.78 17.01 39.78 42.35"/><polygon class="cls-19" points="105.35 24.19 78.78 39.53 82.76 52.32 109.27 36.98 105.35 24.19"/><polygon class="cls-9" points="82.59 48.97 83.26 51.1 108.31 36.71 107.64 34.53 82.59 48.97"/><path class="cls-11" d="M101.44,38.23c-2.14,1-10.73,6-15.92,9.05L87.59,54l23-13.26c-.18-.4-.35-.8-.51-1.18C108,34.78,105.91,36.08,101.44,38.23Z" transform="translate(-5 -5)"/><path class="cls-12" d="M109.84,30.41,84.75,44.81l.77,2.47c5.19-3,13.78-8,15.92-9.05,4.47-2.15,6.59-3.45,8.65,1.3.16.38.33.78.51,1.18l2-1.18Z" transform="translate(-5 -5)"/><polygon class="cls-24" points="109.27 36.98 82.76 52.32 94.03 60.82 120.55 45.48 109.27 36.98"/><polygon class="cls-19" points="94.03 73.95 94.03 60.82 120.55 45.48 120.55 58.62 94.03 73.95"/><path class="cls-8" d="M84.91,63.36c-2.4.65-2.9,3-3.09,5.12l.3.6,7.47-4.37C88.14,63.8,86.66,62.89,84.91,63.36Z" transform="translate(-5 -5)"/><path class="cls-8" d="M85.29,67.86c0,3.34,2,7.22,4.54,8.66s4.53-.1,4.53-3.43-2-7.21-4.54-8.66S85.29,64.53,85.29,67.86Z" transform="translate(-5 -5)"/><polygon class="cls-8" points="87.66 71.83 84.73 73.52 79.22 60.75 82.27 59.01 87.66 71.83"/><path class="cls-9" d="M82.35,69.57c0,3.33,2,7.21,4.54,8.65s4.53-.09,4.53-3.43-2-7.21-4.54-8.65S82.35,66.23,82.35,69.57Z" transform="translate(-5 -5)"/><path class="cls-25" d="M83.63,70.3a7.79,7.79,0,0,0,3.26,6.22c1.8,1,3.26-.07,3.25-2.46a7.81,7.81,0,0,0-3.26-6.23C85.08,66.8,83.62,67.9,83.63,70.3Z" transform="translate(-5 -5)"/><path class="cls-19" d="M84.36,73.47l2.15-1.12,1,1.58-1.4,2A7.08,7.08,0,0,1,84.36,73.47Z" transform="translate(-5 -5)"/><path class="cls-19" d="M83.67,71a4.24,4.24,0,0,1,.39-2.61c1.12,1,2.15,2,2.15,2l-.07.9Z" transform="translate(-5 -5)"/><path class="cls-19" d="M88.2,74.14c.14.16,1,2.42,1,2.42a2,2,0,0,0,.81-1.4,6,6,0,0,0,.12-1.1l-1.51-.74Z" transform="translate(-5 -5)"/><path class="cls-19" d="M86.72,70.31l-.8-2.84a2.25,2.25,0,0,1,1.24.53,7.3,7.3,0,0,1,.9.81l-.79,1.93Z" transform="translate(-5 -5)"/><path class="cls-19" d="M87.86,71.17a10.83,10.83,0,0,1,1.26-.86,7.25,7.25,0,0,1,.71,1.7,9.25,9.25,0,0,1-1.55.17Z" transform="translate(-5 -5)"/><path class="cls-9" d="M85.6,71.22a4,4,0,0,0,1.67,3.18c.92.53,1.67,0,1.66-1.26A4,4,0,0,0,87.27,70C86.35,69.43,85.6,70,85.6,71.22Z" transform="translate(-5 -5)"/><path class="cls-10" d="M86.11,71.76a2.32,2.32,0,0,0,1,1.85c.54.31,1,0,1-.73a2.34,2.34,0,0,0-1-1.85C86.54,70.73,86.1,71.05,86.11,71.76Z" transform="translate(-5 -5)"/><path class="cls-19" d="M88.44,62.13c-1.79-1-4.26-1.69-6.49.95-.76.89-1.28,3.26-1.29,5.18L82,69c0-.05.14-.74.14-.79,0-2.25.55-3.87,1.53-4.67l2.11-.44L85.62,63a4.94,4.94,0,0,1,1.95.69c3.32,1.91,5.78,6.6,5.77,11.93,1,.65,2,1.15,2.16,1.25C95.5,68.48,92.44,64.43,88.44,62.13Z" transform="translate(-5 -5)"/><path class="cls-9" d="M87.57,63.6c3.59,2.06,6.79,7.64,6.52,12.47l-1.21-.71v-.2c0-4-2.41-8.56-5.39-10.28S82.12,65,82.12,69v.12l-1.05-.61C81.09,63.71,84,61.53,87.57,63.6Z" transform="translate(-5 -5)"/><path class="cls-8" d="M51.9,44.09c-2.4.65-2.9,3-3.09,5.13l.31.59,7.46-4.37C55.13,44.53,53.65,43.62,51.9,44.09Z" transform="translate(-5 -5)"/><path class="cls-8" d="M52.28,48.6c0,3.33,2,7.21,4.54,8.65s4.53-.09,4.53-3.43-2-7.21-4.54-8.65S52.28,45.26,52.28,48.6Z" transform="translate(-5 -5)"/><polygon class="cls-8" points="54.65 52.56 51.72 54.26 46.21 41.48 49.27 39.74 54.65 52.56"/><path class="cls-9" d="M49.34,50.3c0,3.33,2,7.21,4.54,8.65s4.53-.09,4.53-3.43-2-7.21-4.54-8.65S49.34,47,49.34,50.3Z" transform="translate(-5 -5)"/><path class="cls-25" d="M50.62,51a7.78,7.78,0,0,0,3.26,6.22c1.8,1,3.26-.06,3.25-2.46a7.78,7.78,0,0,0-3.26-6.22C52.07,47.53,50.61,48.63,50.62,51Z" transform="translate(-5 -5)"/><path class="cls-19" d="M51.35,54.2l2.15-1.11,1,1.57-1.4,2A7.22,7.22,0,0,1,51.35,54.2Z" transform="translate(-5 -5)"/><path class="cls-19" d="M50.66,51.73a4.24,4.24,0,0,1,.39-2.61c1.12,1,2.15,2,2.15,2l-.07.9Z" transform="translate(-5 -5)"/><path class="cls-19" d="M55.19,54.87c.14.16,1,2.42,1,2.42a2,2,0,0,0,.81-1.4,5.9,5.9,0,0,0,.12-1.1l-1.51-.74Z" transform="translate(-5 -5)"/><path class="cls-19" d="M53.71,51l-.79-2.83a2.14,2.14,0,0,1,1.23.52,8.45,8.45,0,0,1,.9.81l-.79,1.93Z" transform="translate(-5 -5)"/><path class="cls-19" d="M54.85,51.9A10.83,10.83,0,0,1,56.11,51a7.25,7.25,0,0,1,.71,1.7,9.16,9.16,0,0,1-1.55.17Z" transform="translate(-5 -5)"/><path class="cls-9" d="M52.6,52a4,4,0,0,0,1.66,3.18c.92.53,1.67,0,1.67-1.26a4,4,0,0,0-1.67-3.18C53.34,50.16,52.59,50.72,52.6,52Z" transform="translate(-5 -5)"/><path class="cls-10" d="M53.1,52.5a2.31,2.31,0,0,0,1,1.84c.54.31,1,0,1-.73a2.31,2.31,0,0,0-1-1.85C53.53,51.46,53.1,51.78,53.1,52.5Z" transform="translate(-5 -5)"/><path class="cls-19" d="M55.43,42.86c-1.79-1-4.26-1.69-6.49,1-.76.89-1.28,3.27-1.29,5.18l1.35.75s.13-.74.13-.79c0-2.25.55-3.87,1.53-4.67l2.11-.44-.16-.09a4.94,4.94,0,0,1,2,.69c3.32,1.91,5.78,6.6,5.78,11.93,1,.65,2,1.15,2.15,1.26C62.49,49.21,59.43,45.17,55.43,42.86Z" transform="translate(-5 -5)"/><path class="cls-9" d="M54.56,44.33c3.59,2.06,6.79,7.65,6.52,12.47l-1.21-.7c0-.05,0-.17,0-.21,0-4-2.42-8.56-5.39-10.28s-5.38.12-5.38,4.08a.49.49,0,0,0,0,.12l-1.06-.61C48.08,44.45,51,42.26,54.56,44.33Z" transform="translate(-5 -5)"/><polygon class="cls-21" points="122.14 56.59 94.47 72.54 94.53 75.1 122.14 59.12 122.14 56.59"/><polygon class="cls-6" points="105.09 66.41 105.09 68.98 114.77 63.37 114.77 60.83 105.09 66.41"/><path class="cls-7" d="M97.69,76.51c0,.28,0,.56,0,.83,0,.54-.07,1.08-.13,1.62l2,1.14V77.57Z" transform="translate(-5 -5)"/><path class="cls-22" d="M96.06,74.43l3.47,2,26-15.06v-.69l1.59.91-27.61,16-3-1.74C96,75.55,96.06,74.43,96.06,74.43Z" transform="translate(-5 -5)"/><path class="cls-7" d="M96.06,74.43a9.05,9.05,0,0,0,.49,3.6,3.6,3.6,0,0,0,1.23,1.07l.12-2.46a6.25,6.25,0,0,1-1.26-1A3.67,3.67,0,0,1,96.06,74.43Z" transform="translate(-5 -5)"/><polygon class="cls-9" points="102.65 65.43 94.93 69.91 94.93 62.82 102.65 58.34 102.65 65.43"/><path class="cls-22" d="M104.93,67.37a1.07,1.07,0,0,1,1.72.75,4,4,0,0,0,.07-.69c0-1.32-.8-1.93-1.79-1.36a4.28,4.28,0,0,0-1.8,3.43,2.77,2.77,0,0,0,.07.61A4.18,4.18,0,0,1,104.93,67.37Z" transform="translate(-5 -5)"/><path class="cls-10" d="M104.92,70.86a4.18,4.18,0,0,0,1.73-2.74,1.07,1.07,0,0,0-1.72-.75,4.18,4.18,0,0,0-1.73,2.74A1.07,1.07,0,0,0,104.92,70.86Z" transform="translate(-5 -5)"/><path class="cls-10" d="M102.2,71.4a1.81,1.81,0,0,1-.76,1.45c-.42.25-.76,0-.76-.57a1.85,1.85,0,0,1,.76-1.46C101.86,70.58,102.2,70.84,102.2,71.4Z" transform="translate(-5 -5)"/><path class="cls-10" d="M102.2,68.69a1.81,1.81,0,0,1-.76,1.45c-.42.24-.76,0-.76-.58a1.81,1.81,0,0,1,.76-1.45C101.86,67.87,102.2,68.13,102.2,68.69Z" transform="translate(-5 -5)"/><polygon class="cls-9" points="119.93 55.39 112.21 59.87 112.21 52.78 119.93 48.3 119.93 55.39"/><path class="cls-22" d="M119.76,58.83a1.07,1.07,0,0,1,1.72.79,3.69,3.69,0,0,0,.07-.65c0-1.33-.8-1.93-1.79-1.36A4.26,4.26,0,0,0,118,61a3.22,3.22,0,0,0,.06.57A4.21,4.21,0,0,1,119.76,58.83Z" transform="translate(-5 -5)"/><path class="cls-10" d="M119.75,62.4a4.2,4.2,0,0,0,1.73-2.78,1.07,1.07,0,0,0-1.72-.79A4.21,4.21,0,0,0,118,61.61,1.08,1.08,0,0,0,119.75,62.4Z" transform="translate(-5 -5)"/><path class="cls-10" d="M124,58.9a1.81,1.81,0,0,1-.76,1.45c-.42.24-.76,0-.76-.57a1.82,1.82,0,0,1,.76-1.46C123.66,58.08,124,58.34,124,58.9Z" transform="translate(-5 -5)"/><path class="cls-10" d="M124,56.18a1.82,1.82,0,0,1-.76,1.46c-.42.24-.76,0-.76-.58a1.81,1.81,0,0,1,.76-1.45C123.66,55.37,124,55.62,124,56.18Z" transform="translate(-5 -5)"/><polygon class="cls-9" points="111.29 60.42 103.57 64.91 103.57 57.82 111.29 53.34 111.29 60.42"/><polygon class="cls-21" points="111.29 54.59 103.57 59.07 103.57 58.49 111.29 54.01 111.29 54.59"/><polygon class="cls-21" points="111.29 56.33 103.57 60.82 103.57 60.24 111.29 55.76 111.29 56.33"/><polygon class="cls-21" points="111.29 58 103.57 62.48 103.57 61.91 111.29 57.42 111.29 58"/><polygon class="cls-21" points="111.29 59.75 103.57 64.23 103.57 63.65 111.29 59.17 111.29 59.75"/><path class="cls-8" d="M44.78,33.94,83,56a.68.68,0,0,0,1-.59V48.75a3.58,3.58,0,0,0-1.78-3.09L44.78,24Z" transform="translate(-5 -5)"/><path class="cls-25" d="M116.55,47.54c-2.3-1.81-5.23-3.84-5.23-3.84L93.2,54.16s5,4,6.37,5.61A29.88,29.88,0,0,1,102,62.91L120.1,52.44A13.52,13.52,0,0,0,116.55,47.54Z" transform="translate(-5 -5)"/><path class="cls-26" d="M48.18,35.18l13.61,8c.77.44,1.39,0,1.39-1V37.09a3.31,3.31,0,0,0-1.39-2.65l-13.61-8c-.76-.44-1.38,0-1.38,1.05v5.08A3.35,3.35,0,0,0,48.18,35.18Z" transform="translate(-5 -5)"/><path class="cls-26" d="M75.94,42.7l-8.09-4.78c-.76-.44-1.38,0-1.38,1v5.08a3.31,3.31,0,0,0,1.38,2.64l8.09,4.78Z" transform="translate(-5 -5)"/><path class="cls-26" d="M81.85,46.12l-3.17-1.88V53l3.17,1.87c.77.44,1.39,0,1.39-1V48.77A3.31,3.31,0,0,0,81.85,46.12Z" transform="translate(-5 -5)"/><path class="cls-19" d="M91.42,55.19s5.47,3.6,7.55,5.24,3,2.48,3,2.48A13.49,13.49,0,0,0,98.44,58c-2.31-1.81-5.24-3.85-5.24-3.85Z" transform="translate(-5 -5)"/><path class="cls-6" d="M82.14,59.5a2.61,2.61,0,0,0,1.2-.43l2.75-1.59a.28.28,0,0,0,.1-.38.26.26,0,0,0-.37-.09l-2.75,1.58c-.57.33-.92.43-1.11.32-.53-.32-.46-2.46-.44-3.16a.28.28,0,0,0-.55,0c-.07,2.28.13,3.3.71,3.65A.86.86,0,0,0,82.14,59.5Z" transform="translate(-5 -5)"/><path class="cls-21" d="M82,57.47l-1.93,1.12c-.46.26-.83,0-.83-.62V52.45a2,2,0,0,1,.83-1.58L82,49.75c.46-.26.83,0,.83.63v5.51A2,2,0,0,1,82,57.47Z" transform="translate(-5 -5)"/><polygon class="cls-21" points="75.01 53.92 74.53 53.62 74.69 53.29 75.19 53.53 75.01 53.92"/><polygon class="cls-21" points="77.44 44.65 78.03 44.97 77.76 45.27 77.3 44.96 77.44 44.65"/><path class="cls-22" d="M82.45,57.71l-1.94,1.12c-.45.26-.82,0-.82-.63V52.69a2,2,0,0,1,.82-1.58L82.45,50c.45-.26.83,0,.83.62v5.52A2,2,0,0,1,82.45,57.71Z" transform="translate(-5 -5)"/><path class="cls-9" d="M63.93,27.9,82.06,17.43c1-.6.91-1.66-.29-2.35l-7.5-4.34a4.54,4.54,0,0,0-4.08-.16L52.06,21c-1.05.6-.91,1.67.29,2.36l7.5,4.33A4.57,4.57,0,0,0,63.93,27.9Z" transform="translate(-5 -5)"/><path class="cls-11" d="M69.57,16.45c-6.33,3.26-11.09,5.91-14.31,7.77L60.08,27a4,4,0,0,0,3.59.14l16.8-9.68L78,16.43C73.49,14.51,70.42,16,69.57,16.45Z" transform="translate(-5 -5)"/><path class="cls-12" d="M80.86,15.39l-6.88-4a4,4,0,0,0-3.59-.15l-17.33,10c-.92.53-.87,1.21.19,1.82l2,1.17c3.22-1.86,8-4.51,14.31-7.77.85-.43,3.92-1.94,8.45,0l2.45,1.05.53-.3C81.91,16.65,81.92,16,80.86,15.39Z" transform="translate(-5 -5)"/><polygon class="cls-23" points="81.45 35.26 81.9 35 60.85 22.9 60.4 23.16 81.45 35.26"/><polygon class="cls-23" points="84.24 33.6 84.7 33.34 63.64 21.24 63.19 21.5 84.24 33.6"/><polygon class="cls-23" points="87.33 31.88 87.78 31.62 66.73 19.52 66.27 19.78 87.33 31.88"/><polygon class="cls-23" points="90.12 30.22 90.58 29.96 69.52 17.86 69.07 18.12 90.12 30.22"/><polygon class="cls-23" points="92.77 28.71 93.23 28.45 72.17 16.35 71.72 16.61 92.77 28.71"/><polygon class="cls-23" points="95.57 27.05 96.02 26.79 74.97 14.68 74.51 14.95 95.57 27.05"/><polygon class="cls-23" points="98.65 25.33 99.11 25.07 78.05 12.97 77.6 13.23 98.65 25.33"/><polygon class="cls-8" points="59.57 53.88 60.15 54.22 60.15 28.77 59.57 28.44 59.57 53.88"/><polygon class="cls-8" points="72.03 61.09 72.6 61.42 72.6 35.97 72.03 35.64 72.03 61.09"/><path class="cls-7" d="M75.8,53.35,74,52.29c-.19-.11-.34,0-.34.26h0a.84.84,0,0,0,.34.67l1.84,1.06c.19.11.35,0,.35-.26h0A.84.84,0,0,0,75.8,53.35Z" transform="translate(-5 -5)"/></g></svg>