<svg id="Capa_1" data-name="Capa 1" xmlns="http://www.w3.org/2000/svg" xmlns:xlink="http://www.w3.org/1999/xlink" viewBox="0 0 140 140"><defs><style>.cls-1{fill:none;}.cls-2{fill:#ecf0f8;}.cls-3{clip-path:url(#clip-path);}.cls-4{fill:#4f464d;}.cls-5{fill:#eebe20;}.cls-6{fill:#fff;}</style><clipPath id="clip-path" transform="translate(-5 -5)"><circle class="cls-1" cx="75" cy="75" r="70"/></clipPath></defs><title>MQ-002</title><circle class="cls-2" cx="70" cy="70" r="70"/><g class="cls-3"><path class="cls-4" d="M133.7,115.15a49.91,49.91,0,0,0-10,1.71l-.89.33c-12.23,3-38.37,9.66-51,12.88l-.18.05a8.43,8.43,0,0,1-1.6.16,7.9,7.9,0,0,1-2.67-.49l-.46-.17h0L29.49,102.55l-1.65-1.19a7.32,7.32,0,0,1-1.69-1.23l0,0h0a6.77,6.77,0,0,1-2.05-4.85,6.87,6.87,0,0,1,6.29-6.82,6.36,6.36,0,0,1,1.24-.12,7,7,0,0,1,.93.07,8,8,0,0,1,.85.19,5.73,5.73,0,0,1,1,.41,5.19,5.19,0,0,1,.65.37h0l4.32,3.12,23.82,15.45a8.24,8.24,0,0,0,2.33.16c1.3-.31,8.45-2.19,15.1-3.95L81,104c1.77-.51,3.66-1,5.65-1.49L92.51,101A6.4,6.4,0,0,0,90.46,89H75.33a4.27,4.27,0,0,1,0-8.53H91.44c2.21-.07,4.82-.09,7.89-.09,6.83,0,11.57,2.55,15.81,5.5C121,90,123.76,94.55,144,94.55l-4.82,18.35Z" transform="translate(-5 -5)"/><path class="cls-5" d="M62.31,43.22,55,50.58V71.91a4.87,4.87,0,0,0,4.88,4.87H91.7a4.88,4.88,0,0,0,4.88-4.87V50.58l-8.21-8.2L75.76,29.77ZM83.7,73.39H67.83V54.31H83.7Z" transform="translate(-5 -5)"/><path class="cls-4" d="M47.07,52.76l2.85,2.85,5-5,7.36-7.36L75.76,29.77,88.37,42.38l8.21,8.2,5,5,2.85-2.85a5.19,5.19,0,0,0,0-7.36L82.29,23.24h0l-2.85-2.85a5.2,5.2,0,0,0-7.37,0l-2.86,2.85h0L47.07,45.4A5.21,5.21,0,0,0,47.07,52.76Z" transform="translate(-5 -5)"/><rect class="cls-6" x="62.83" y="49.31" width="15.87" height="19.08"/></g></svg>