<svg xmlns="http://www.w3.org/2000/svg" xmlns:xlink="http://www.w3.org/1999/xlink" viewBox="0 0 140 140"><defs><style>.cls-1{fill:none;}.cls-2{isolation:isolate;}.cls-3{fill:#ecf0f8;}.cls-4{clip-path:url(#clip-path);}.cls-19,.cls-5{fill:gray;mix-blend-mode:multiply;}.cls-6{fill:#414042;}.cls-7{fill:#59595b;}.cls-8{fill:#919395;}.cls-9{fill:#6d6e71;}.cls-10{fill:#e94747;}.cls-11{fill:#accd42;}.cls-12{fill:#e5e5e6;}.cls-13{fill:#babcbe;}.cls-14{fill:#fff;}.cls-15{fill:#3c3c3d;}.cls-16{fill:#4d4f4f;}.cls-17{fill:#cbcccc;}.cls-18{fill:#a1a2a4;}.cls-19{opacity:0.7;}.cls-20{fill:#0b263f;fill-rule:evenodd;}.cls-21{fill:#205d84;}.cls-22{fill:#e04000;}.cls-23{fill:#cfe4e6;}.cls-24{fill:#ababab;}</style><clipPath id="clip-path" transform="translate(-5 -5)"><circle class="cls-1" cx="75" cy="75" r="70"/></clipPath></defs><title>MQ-004</title><g class="cls-2"><g id="Capa_1" data-name="Capa 1"><circle class="cls-3" cx="70" cy="70" r="70"/><g class="cls-4"><path class="cls-5" d="M125.24,80.3H114V69.89h-4.42V59.76h-.85V52.91H77.78v1.37H75.09v5.48H72.85V69.89H68.43V80.3H57.17a4.32,4.32,0,0,0-4.31,4.31v25.61a4.33,4.33,0,0,0,4.31,4.32h1.35V117H70.66v3.29h41.09V117h15.18v-2.81a4.34,4.34,0,0,0,2.62-4V84.61A4.32,4.32,0,0,0,125.24,80.3Z" transform="translate(-5 -5)"/><g id="_15" data-name="15"><rect class="cls-6" x="51.95" y="105.64" width="68.42" height="4.79"/><path class="cls-7" d="M51.29,100.1v8.56A4.33,4.33,0,0,0,55.61,113h68.06a4.33,4.33,0,0,0,4.32-4.31V100.1Z" transform="translate(-5 -5)"/><path class="cls-8" d="M128,83.05a4.33,4.33,0,0,0-4.32-4.32H55.61a4.33,4.33,0,0,0-4.32,4.32v17H128Z" transform="translate(-5 -5)"/><path class="cls-7" d="M66.86,68.6V83.79a4.33,4.33,0,0,0,4.32,4.32H108.1a4.34,4.34,0,0,0,4.32-4.32V68.6Z" transform="translate(-5 -5)"/><path class="cls-8" d="M66.86,68.32V79.79a4.33,4.33,0,0,0,4.32,4.32H108.1a4.33,4.33,0,0,0,4.32-4.32V68.32Z" transform="translate(-5 -5)"/><rect class="cls-8" x="66.29" y="53.19" width="36.7" height="20.16"/><path class="cls-9" d="M113.07,91.88h-9.39c-.6,0-1.09.31-1.09.69v5.24c0,.38.49.69,1.09.69h9.39c.6,0,1.09-.31,1.09-.69V92.57C114.16,92.19,113.67,91.88,113.07,91.88Z" transform="translate(-5 -5)"/><path class="cls-10" d="M118.91,92.57H115.2a.5.5,0,0,0-.43.55v4.14a.5.5,0,0,0,.43.55h3.71a.5.5,0,0,0,.43-.55V93.12A.5.5,0,0,0,118.91,92.57Z" transform="translate(-5 -5)"/><path class="cls-11" d="M124.93,92.57h-3.71a.51.51,0,0,0-.43.55v4.14a.51.51,0,0,0,.43.55h3.71a.51.51,0,0,0,.44-.55V93.12A.51.51,0,0,0,124.93,92.57Z" transform="translate(-5 -5)"/><path class="cls-12" d="M96.37,94.07H80.3a3.89,3.89,0,0,0-1.87.24v1.77a4,4,0,0,0,1.87.23H96.37a4,4,0,0,0,1.87-.23V94.31A3.89,3.89,0,0,0,96.37,94.07Z" transform="translate(-5 -5)"/><rect class="cls-13" x="71.22" y="46.34" width="30.93" height="36.76"/><rect class="cls-14" x="68.53" y="47.71" width="32.22" height="35.39"/><polygon class="cls-15" points="105.18 95.1 65.46 95.1 84.09 113.72 105.18 113.72 105.18 95.1"/><polygon class="cls-16" points="64.09 95.1 64.09 113.72 84.09 113.72 65.46 95.1 64.09 95.1"/><polygon class="cls-17" points="100.47 112.08 100.47 97.02 68.25 97.02 68.25 97.89 82.45 112.08 100.47 112.08"/><polygon class="cls-12" points="82.45 112.08 68.25 97.89 68.25 112.08 82.45 112.08"/><polygon class="cls-18" points="97.24 109.07 97.24 106.88 77.24 106.88 79.43 109.07 97.24 109.07"/><polygon class="cls-13" points="71.22 109.07 79.43 109.07 77.24 106.88 71.22 106.88 71.22 109.07"/><polygon class="cls-18" points="97.24 105.64 97.24 103.45 73.82 103.45 76.01 105.64 97.24 105.64"/><polygon class="cls-13" points="71.22 105.64 76.01 105.64 73.82 103.45 71.22 103.45 71.22 105.64"/></g><rect class="cls-19" x="21.32" y="24.26" width="34.72" height="46.29" rx="0.96"/><rect class="cls-14" x="23.4" y="25.79" width="28.74" height="9.9"/><polygon class="cls-20" points="30.02 29.19 29.95 30.63 30.16 30.81 30.39 30.63 30.47 29.19 30.25 29.01 30.02 29.19"/><polygon class="cls-20" points="28.73 31.04 28.65 32.49 28.87 32.66 29.1 32.49 29.18 31.04 28.96 30.87 28.73 31.04"/><polygon class="cls-20" points="29.25 31.01 29.85 31.01 30.08 30.84 29.87 30.66 29.27 30.66 29.04 30.84 29.25 31.01"/><polygon class="cls-20" points="29.15 32.87 29.75 32.87 29.98 32.69 29.77 32.51 29.17 32.51 28.94 32.69 29.15 32.87"/><polygon class="cls-20" points="29.36 29.16 29.95 29.16 30.18 28.98 29.97 28.81 29.37 28.81 29.14 28.98 29.36 29.16"/><polygon class="cls-20" points="32.04 29.19 31.96 30.63 32.17 30.81 32.41 30.63 32.48 29.19 32.27 29.01 32.04 29.19"/><polygon class="cls-20" points="31.93 31.04 31.86 32.49 32.07 32.66 32.3 32.49 32.38 31.04 32.17 30.87 31.93 31.04"/><polygon class="cls-20" points="31.27 31.01 31.86 31.01 32.09 30.84 31.88 30.66 31.29 30.66 31.05 30.84 31.27 31.01"/><polygon class="cls-20" points="31.16 32.87 31.76 32.87 32 32.69 31.78 32.51 31.19 32.51 30.95 32.69 31.16 32.87"/><polygon class="cls-20" points="31.37 29.16 31.96 29.16 32.2 28.98 31.98 28.81 31.39 28.81 31.15 28.98 31.37 29.16"/><polygon class="cls-20" points="34.35 29.19 34.27 30.63 34.48 30.81 34.72 30.63 34.8 29.19 34.58 29.01 34.35 29.19"/><polygon class="cls-20" points="34.24 31.04 34.17 32.49 34.38 32.66 34.62 32.49 34.69 31.04 34.48 30.87 34.24 31.04"/><polygon class="cls-20" points="33.58 31.01 34.17 31.01 34.41 30.84 34.19 30.66 33.6 30.66 33.36 30.84 33.58 31.01"/><polygon class="cls-20" points="33.15 29.19 33.08 30.63 33.29 30.81 33.52 30.63 33.6 29.19 33.39 29.01 33.15 29.19"/><polygon class="cls-20" points="35.91 29.19 35.84 30.63 35.6 30.81 35.39 30.63 35.46 29.19 35.7 29.01 35.91 29.19"/><polygon class="cls-20" points="37 31.04 36.93 32.49 36.69 32.66 36.48 32.49 36.56 31.04 36.79 30.87 37 31.04"/><polygon class="cls-20" points="36.48 31.01 35.89 31.01 35.67 30.84 35.91 30.66 36.5 30.66 36.72 30.84 36.48 31.01"/><polygon class="cls-20" points="36.38 32.87 35.79 32.87 35.57 32.69 35.81 32.51 36.41 32.51 36.62 32.69 36.38 32.87"/><polygon class="cls-20" points="36.59 29.16 35.99 29.16 35.77 28.98 36.01 28.81 36.6 28.81 36.82 28.98 36.59 29.16"/><polygon class="cls-20" points="38.19 29.19 38.11 30.63 37.87 30.81 37.66 30.63 37.74 29.19 37.97 29.01 38.19 29.19"/><polygon class="cls-20" points="39.28 31.04 39.2 32.49 38.97 32.66 38.75 32.49 38.83 31.04 39.06 30.87 39.28 31.04"/><polygon class="cls-20" points="38.76 31.01 38.16 31.01 37.95 30.84 38.18 30.66 38.78 30.66 38.99 30.84 38.76 31.01"/><polygon class="cls-20" points="38.66 32.87 38.06 32.87 37.85 32.69 38.08 32.51 38.68 32.51 38.89 32.69 38.66 32.87"/><polygon class="cls-20" points="38.86 29.16 38.26 29.16 38.05 28.98 38.28 28.81 38.88 28.81 39.09 28.98 38.86 29.16"/><polygon class="cls-20" points="38.09 31.04 38.01 32.49 37.78 32.66 37.56 32.49 37.64 31.04 37.87 30.87 38.09 31.04"/><polygon class="cls-20" points="40.68 29.22 40.6 30.66 40.82 30.84 41.05 30.66 41.13 29.22 40.91 29.04 40.68 29.22"/><polygon class="cls-20" points="40.58 31.07 40.51 32.51 40.72 32.69 40.95 32.51 41.03 31.07 40.81 30.89 40.58 31.07"/><polygon class="cls-20" points="39.98 29.16 40.57 29.16 40.81 28.98 40.59 28.81 39.99 28.81 39.76 28.98 39.98 29.16"/><polygon class="cls-20" points="42.29 29.19 42.21 30.63 41.98 30.81 41.76 30.63 41.84 29.19 42.07 29.01 42.29 29.19"/><polygon class="cls-20" points="43.38 31.04 43.3 32.49 43.07 32.66 42.85 32.49 42.93 31.04 43.16 30.87 43.38 31.04"/><polygon class="cls-20" points="42.86 31.01 42.26 31.01 42.05 30.84 42.28 30.66 42.88 30.66 43.09 30.84 42.86 31.01"/><polygon class="cls-20" points="42.76 32.87 42.16 32.87 41.95 32.69 42.18 32.51 42.78 32.51 42.99 32.69 42.76 32.87"/><polygon class="cls-20" points="42.96 29.16 42.36 29.16 42.15 28.98 42.38 28.81 42.98 28.81 43.19 28.98 42.96 29.16"/><polygon class="cls-20" points="42.19 31.04 42.11 32.49 41.88 32.66 41.66 32.49 41.74 31.04 41.97 30.87 42.19 31.04"/><polygon class="cls-20" points="43.48 29.19 43.4 30.63 43.17 30.81 42.95 30.63 43.03 29.19 43.26 29.01 43.48 29.19"/><polygon class="cls-20" points="44.45 29.19 44.37 30.63 44.14 30.81 43.92 30.63 44 29.19 44.23 29.01 44.45 29.19"/><polygon class="cls-20" points="45.54 31.04 45.46 32.49 45.23 32.66 45.02 32.49 45.09 31.04 45.33 30.87 45.54 31.04"/><polygon class="cls-20" points="45.02 31.01 44.43 31.01 44.21 30.84 44.44 30.66 45.04 30.66 45.26 30.84 45.02 31.01"/><polygon class="cls-20" points="44.92 32.87 44.32 32.87 44.11 32.69 44.34 32.51 44.94 32.51 45.15 32.69 44.92 32.87"/><polygon class="cls-20" points="45.12 29.16 44.52 29.16 44.31 28.98 44.54 28.81 45.14 28.81 45.35 28.98 45.12 29.16"/><polygon class="cls-20" points="45.64 29.19 45.56 30.63 45.33 30.81 45.12 30.63 45.19 29.19 45.43 29.01 45.64 29.19"/><polygon class="cls-20" points="46.72 29.19 46.65 30.63 46.41 30.81 46.2 30.63 46.27 29.19 46.51 29.01 46.72 29.19"/><polygon class="cls-20" points="47.82 31.04 47.74 32.49 47.5 32.66 47.29 32.49 47.37 31.04 47.6 30.87 47.82 31.04"/><polygon class="cls-20" points="47.19 32.87 46.6 32.87 46.39 32.69 46.62 32.51 47.22 32.51 47.43 32.69 47.19 32.87"/><polygon class="cls-20" points="47.4 29.16 46.8 29.16 46.58 28.98 46.82 28.81 47.41 28.81 47.63 28.98 47.4 29.16"/><polygon class="cls-20" points="46.62 31.04 46.55 32.49 46.31 32.66 46.1 32.49 46.17 31.04 46.41 30.87 46.62 31.04"/><polygon class="cls-20" points="47.92 29.19 47.84 30.63 47.6 30.81 47.39 30.63 47.47 29.19 47.7 29.01 47.92 29.19"/><polygon class="cls-20" points="27.56 29.19 27.49 30.63 27.7 30.81 27.93 30.63 28.01 29.19 27.8 29.01 27.56 29.19"/><polygon class="cls-20" points="27.46 31.04 27.38 32.49 27.6 32.66 27.83 32.49 27.91 31.04 27.7 30.87 27.46 31.04"/><path class="cls-21" d="M59,28.23H26.25a1,1,0,0,0-1,1V73.56a1,1,0,0,0,1,1H59a1,1,0,0,0,1-1V29.19A1,1,0,0,0,59,28.23ZM56.15,39a1,1,0,0,1-1,1H30.11a1,1,0,0,1-1-1V32.81a1,1,0,0,1,1-1H55.19a1,1,0,0,1,1,1Z" transform="translate(-5 -5)"/><rect class="cls-22" x="46.03" y="52.7" width="5.13" height="10.71"/><rect class="cls-23" x="24.83" y="39.42" width="5.13" height="4.28"/><rect class="cls-24" x="31.96" y="39.42" width="5.13" height="4.28"/><rect class="cls-14" x="38.81" y="39.42" width="5.13" height="4.28"/><rect class="cls-14" x="46.03" y="39.42" width="5.13" height="4.28"/><rect class="cls-14" x="24.83" y="46.06" width="5.13" height="4.28"/><rect class="cls-14" x="31.96" y="46.06" width="5.13" height="4.28"/><rect class="cls-14" x="38.81" y="46.06" width="5.13" height="4.28"/><rect class="cls-14" x="46.03" y="46.06" width="5.13" height="4.28"/><rect class="cls-14" x="24.83" y="52.7" width="5.13" height="4.28"/><rect class="cls-14" x="31.96" y="52.7" width="5.13" height="4.28"/><rect class="cls-14" x="38.81" y="52.7" width="5.13" height="4.28"/><rect class="cls-14" x="24.83" y="59.18" width="5.13" height="4.28"/><rect class="cls-14" x="31.96" y="59.18" width="5.13" height="4.28"/><rect class="cls-14" x="38.81" y="59.18" width="5.13" height="4.28"/></g></g></g></svg>