<svg id="Capa_1" data-name="Capa 1" xmlns="http://www.w3.org/2000/svg" viewBox="0 0 89.63 89.65"><defs><style>.cls-1{fill:#003bee;}.cls-2{fill:#fff;}</style></defs><title>RD-003</title><path class="cls-1" d="M119.82,76.45c0,30.78-14,43.37-44.82,43.37S30.18,107.23,30.18,76.45,44.23,30.18,75,30.18s44.82,15.49,44.82,46.27" transform="translate(-30.18 -30.18)"/><path class="cls-2" d="M66.26,95.28c18.5,0,28.61-15.33,28.61-28.62,0-.44,0-.87,0-1.3a20.55,20.55,0,0,0,5-5.21,20,20,0,0,1-5.77,1.58,10.11,10.11,0,0,0,4.42-5.56,20.26,20.26,0,0,1-6.39,2.44,10.06,10.06,0,0,0-17.4,6.88A10.18,10.18,0,0,0,75,67.78,28.53,28.53,0,0,1,54.26,57.27,10,10,0,0,0,57.37,70.7a9.94,9.94,0,0,1-4.56-1.26v.13a10.06,10.06,0,0,0,8.07,9.86,10,10,0,0,1-2.65.35,9.77,9.77,0,0,1-1.89-.18,10.06,10.06,0,0,0,9.39,7A20.14,20.14,0,0,1,53.24,90.9a20.87,20.87,0,0,1-2.39-.14,28.47,28.47,0,0,0,15.41,4.52" transform="translate(-30.18 -30.18)"/></svg>