<svg id="Capa_1" data-name="Capa 1" xmlns="http://www.w3.org/2000/svg" viewBox="0 0 89.63 89.65"><defs><style>.cls-1{fill:#003bee;}.cls-2{fill:#fff;fill-rule:evenodd;}</style></defs><title>RD-004</title><path class="cls-1" d="M119.82,76.45c0,30.78-14,43.37-44.82,43.37S30.18,107.23,30.18,76.45,44.23,30.18,75,30.18s44.82,15.49,44.82,46.27" transform="translate(-30.18 -30.18)"/><path class="cls-2" d="M95.79,55.22A28,28,0,0,0,51.76,89l-4,14.49,14.82-3.89A28.06,28.06,0,0,0,76,103h0A28,28,0,0,0,95.79,55.22M76,98.25h0A23.17,23.17,0,0,1,64.16,95l-.85-.5-8.8,2.31,2.35-8.58-.55-.88A23.25,23.25,0,1,1,76,98.25" transform="translate(-30.18 -30.18)"/><path class="cls-2" d="M88.75,80.84c-.7-.35-4.13-2-4.77-2.27s-1.11-.35-1.57.35-1.81,2.27-2.22,2.74-.81.52-1.51.17a19,19,0,0,1-5.62-3.46,21.23,21.23,0,0,1-3.89-4.84c-.41-.7,0-1.08.31-1.43s.7-.82,1-1.23a4.43,4.43,0,0,0,.7-1.16,1.27,1.27,0,0,0-.06-1.23C71,68.14,69.59,64.7,69,63.3s-1.14-1.18-1.57-1.2-.88,0-1.34,0a2.6,2.6,0,0,0-1.87.88,7.84,7.84,0,0,0-2.44,5.83c0,3.44,2.5,6.76,2.85,7.23s4.93,7.52,11.94,10.55a40.24,40.24,0,0,0,4,1.47,9.65,9.65,0,0,0,4.41.28c1.34-.2,4.13-1.7,4.71-3.33a5.72,5.72,0,0,0,.41-3.32c-.17-.29-.64-.47-1.34-.82" transform="translate(-30.18 -30.18)"/></svg>