<svg id="Capa_1" data-name="Capa 1" xmlns="http://www.w3.org/2000/svg" viewBox="0 0 89.63 89.65"><defs><style>.cls-1{fill:#003bee;}.cls-2{fill:#fff;}</style></defs><title>RD-001</title><path class="cls-1" d="M119.82,76.45c0,30.78-14,43.37-44.82,43.37S30.18,107.23,30.18,76.45,44.23,30.18,75,30.18s44.82,15.49,44.82,46.27" transform="translate(-30.18 -30.18)"/><path class="cls-2" d="M75.35,51.59c7.74,0,8.66,0,11.71.17a15.92,15.92,0,0,1,5.38,1,9.48,9.48,0,0,1,5.5,5.5,15.92,15.92,0,0,1,1,5.38c.14,3.06.17,4,.17,11.71s0,8.66-.17,11.72a16,16,0,0,1-1,5.38,8.92,8.92,0,0,1-2.16,3.33A9.11,9.11,0,0,1,92.44,98a15.92,15.92,0,0,1-5.38,1c-3,.14-4,.17-11.71.17s-8.65,0-11.71-.17a16,16,0,0,1-5.38-1,9.07,9.07,0,0,1-3.33-2.17,8.94,8.94,0,0,1-2.17-3.33,16,16,0,0,1-1-5.38c-.14-3.06-.17-4-.17-11.72s0-8.65.17-11.71a15.92,15.92,0,0,1,1-5.38,9.55,9.55,0,0,1,5.5-5.5,16,16,0,0,1,5.38-1c3.06-.14,4-.17,11.71-.17m0-5.22c-7.87,0-8.85,0-11.95.17a21.13,21.13,0,0,0-7,1.35,14.86,14.86,0,0,0-8.48,8.47,21.54,21.54,0,0,0-1.34,7c-.15,3.09-.18,4.08-.18,11.95s0,8.86.18,12a21.43,21.43,0,0,0,1.34,7,14.91,14.91,0,0,0,8.48,8.48,21.65,21.65,0,0,0,7,1.35c3.1.14,4.08.17,11.95.17s8.86,0,12-.17a21.72,21.72,0,0,0,7-1.35,14.86,14.86,0,0,0,8.47-8.48,21.14,21.14,0,0,0,1.35-7c.14-3.09.17-4.08.17-12s0-8.86-.17-11.95a21.25,21.25,0,0,0-1.35-7,14.8,14.8,0,0,0-8.47-8.47,21.19,21.19,0,0,0-7-1.35c-3.09-.14-4.08-.17-12-.17" transform="translate(-30.18 -30.18)"/><path class="cls-2" d="M75.35,60.47A14.89,14.89,0,1,0,90.23,75.35,14.88,14.88,0,0,0,75.35,60.47m0,24.54A9.66,9.66,0,1,1,85,75.35,9.66,9.66,0,0,1,75.35,85" transform="translate(-30.18 -30.18)"/><path class="cls-2" d="M94.3,59.88a3.48,3.48,0,1,1-3.48-3.48,3.48,3.48,0,0,1,3.48,3.48" transform="translate(-30.18 -30.18)"/></svg>